<?xml version="1.0" encoding="utf-8"?>
<!-- Generator: Adobe Illustrator 27.5.0, SVG Export Plug-In . SVG Version: 6.00 Build 0)  -->
<svg version="1.1" xmlns="http://www.w3.org/2000/svg" xmlns:xlink="http://www.w3.org/1999/xlink" x="0px" y="0px"
	 viewBox="0 0 3000 3000" style="enable-background:new 0 0 3000 3000;" xml:space="preserve">
<g id="BACKGROUND">
</g>
<g id="OBJECTS">
	<defs>
		
			<filter id="Adobe_OpacityMaskFilter" filterUnits="userSpaceOnUse" x="-849.327" y="-705.025" width="2131.327" height="4765.996">
			<feColorMatrix  type="matrix" values="1 0 0 0 0  0 1 0 0 0  0 0 1 0 0  0 0 0 1 0"/>
		</filter>
	</defs>
	<mask maskUnits="userSpaceOnUse" x="-849.327" y="-705.025" width="2131.327" height="4765.996" id="SVGID_1_">
		<g style="filter:url(#Adobe_OpacityMaskFilter);">
			<rect x="-1.5" y="-4.5" style="fill:#F9F9F9;stroke:#000000;stroke-width:1;stroke-miterlimit:10;" width="3003" height="3003"/>
		</g>
	</mask>
	<g style="mask:url(#SVGID_1_);">
		<g>
			<g>
				<line style="fill:#414B3B;" x1="911.54" y1="2999.44" x2="881.933" y2="3058.653"/>
				<path style="fill:#425736;" d="M881.928,3065.648c-1.051,0-2.118-0.237-3.122-0.739c-3.455-1.728-4.855-5.929-3.128-9.384
					l29.607-59.214c1.727-3.454,5.928-4.855,9.383-3.128c3.455,1.728,4.855,5.929,3.127,9.384l-29.607,59.214
					C886.963,3064.231,884.493,3065.648,881.928,3065.648z"/>
			</g>
			<g>
				<line style="fill:#414B3B;" x1="941.147" y1="3029.046" x2="881.933" y2="3048.784"/>
				<path style="fill:#425736;" d="M881.932,3055.78c-2.928,0-5.657-1.854-6.634-4.784c-1.222-3.665,0.759-7.625,4.423-8.847
					l59.213-19.738c3.667-1.219,7.625,0.759,8.847,4.423c1.222,3.665-0.759,7.625-4.423,8.847l-59.213,19.738
					C883.411,3055.663,882.665,3055.78,881.932,3055.78z"/>
			</g>
			<g>
				<line style="fill:#414B3B;" x1="674.686" y1="3374.459" x2="753.637" y2="3167.211"/>
				<path style="fill:#425736;" d="M674.684,3381.455c-0.828,0-1.669-0.148-2.488-0.461c-3.609-1.375-5.421-5.415-4.046-9.025
					l78.952-207.248c1.375-3.609,5.414-5.424,9.025-4.045c3.609,1.375,5.421,5.415,4.046,9.025l-78.952,207.248
					C680.158,3379.739,677.502,3381.455,674.684,3381.455z"/>
			</g>
			<g>
				<line style="fill:#414B3B;" x1="645.079" y1="3374.459" x2="654.948" y2="3117.867"/>
				<path style="fill:#425736;" d="M645.084,3381.453c-0.091,0-0.182-0.002-0.273-0.006c-3.86-0.148-6.869-3.397-6.72-7.257
					l9.869-256.593c0.148-3.86,3.41-6.874,7.257-6.72c3.86,0.148,6.869,3.397,6.72,7.257l-9.869,256.593
					C651.923,3378.496,648.822,3381.453,645.084,3381.453z"/>
			</g>
			<g>
				<line style="fill:#414B3B;" x1="640.145" y1="3369.524" x2="640.145" y2="3389.262"/>
				<path style="fill:#728168;" d="M640.145,3399.752c-5.794,0-10.491-4.696-10.491-10.49v-19.737c0-5.794,4.697-10.49,10.491-10.49
					s10.491,4.696,10.491,10.49v19.737C650.635,3395.056,645.938,3399.752,640.145,3399.752z"/>
			</g>
			<g>
				<g>
					<line style="fill:#414B3B;" x1="640.145" y1="3606.378" x2="511.849" y2="3695.198"/>
					
						<rect x="497.976" y="3645.854" transform="matrix(0.8222 -0.5692 0.5692 0.8222 -1975.7152 977.0655)" style="fill:#425736;" width="156.041" height="9.868"/>
				</g>
				<g>
					<line style="fill:#414B3B;" x1="536.521" y1="3483.017" x2="526.652" y2="3660.657"/>
					
						<rect x="442.629" y="3566.903" transform="matrix(0.0554 -0.9985 0.9985 0.0554 -3064.22 3904.6724)" style="fill:#425736;" width="177.915" height="9.869"/>
				</g>
				<g>
					<line style="fill:#414B3B;" x1="541.455" y1="3626.116" x2="447.701" y2="3798.822"/>
					<path style="fill:#425736;" d="M447.691,3809.314c-1.69,0-3.405-0.409-4.996-1.272c-5.092-2.765-6.979-9.133-4.215-14.225
						l93.755-172.706c2.764-5.092,9.132-6.979,14.225-4.215c5.092,2.765,6.979,9.133,4.215,14.225l-93.755,172.706
						C455.02,3807.329,451.414,3809.314,447.691,3809.314z"/>
				</g>
				<g>
					<line style="fill:#414B3B;" x1="255.257" y1="4050.48" x2="442.766" y2="3803.757"/>
					<path style="fill:#425736;" d="M255.249,4060.971c-2.212,0-4.442-0.697-6.34-2.139c-4.613-3.506-5.51-10.088-2.004-14.7
						l187.509-246.723c3.506-4.612,10.087-5.509,14.7-2.005c4.613,3.506,5.51,10.088,2.004,14.7l-187.509,246.723
						C261.545,4059.543,258.416,4060.971,255.249,4060.971z"/>
				</g>
				<g>
					<line style="fill:#414B3B;" x1="980.622" y1="2348.091" x2="891.802" y2="2525.731"/>
					<path style="fill:#425736;" d="M891.797,2532.727c-1.051,0-2.118-0.237-3.123-0.739c-3.455-1.728-4.855-5.929-3.127-9.384
						l88.82-177.641c1.727-3.454,5.927-4.855,9.383-3.128c3.455,1.728,4.855,5.929,3.127,9.384l-88.82,177.641
						C896.833,2531.31,894.362,2532.727,891.797,2532.727z"/>
				</g>
				<g>
					<line style="fill:#414B3B;" x1="872.064" y1="2703.372" x2="881.933" y2="2565.207"/>
					<path style="fill:#425736;" d="M872.072,2710.366c-0.167,0-0.336-0.006-0.505-0.019c-3.853-0.274-6.753-3.621-6.478-7.474
						l9.869-138.165c0.275-3.854,3.621-6.776,7.474-6.478c3.853,0.274,6.753,3.621,6.478,7.474l-9.869,138.165
						C878.777,2707.554,875.707,2710.366,872.072,2710.366z"/>
				</g>
				<g>
					<line style="fill:#414B3B;" x1="872.064" y1="2713.241" x2="960.885" y2="2594.814"/>
					<path style="fill:#425736;" d="M872.059,2720.235c-1.46,0-2.933-0.455-4.191-1.399c-3.09-2.317-3.716-6.701-1.399-9.791
						l88.82-118.428c2.317-3.091,6.701-3.718,9.792-1.398c3.09,2.317,3.716,6.701,1.399,9.791l-88.82,118.428
						C876.286,2719.27,874.185,2720.235,872.059,2720.235z"/>
				</g>
				<g>
					<line style="fill:#414B3B;" x1="802.982" y1="2614.552" x2="862.195" y2="2762.585"/>
					<path style="fill:#425736;" d="M862.197,2769.581c-2.775,0-5.402-1.663-6.496-4.397l-59.213-148.034
						c-1.435-3.587,0.31-7.656,3.896-9.091c3.585-1.436,7.656,0.309,9.091,3.896l59.213,148.034c1.435,3.587-0.31,7.656-3.896,9.091
						C863.941,2769.42,863.062,2769.581,862.197,2769.581z"/>
				</g>
				<g>
					<line style="fill:#414B3B;" x1="872.064" y1="2703.372" x2="852.326" y2="2851.406"/>
					<path style="fill:#425736;" d="M852.335,2858.399c-0.308,0-0.619-0.02-0.933-0.062c-3.829-0.511-6.519-4.028-6.008-7.857
						l19.738-148.033c0.51-3.828,4.025-6.513,7.856-6.008c3.829,0.511,6.519,4.028,6.008,7.857l-19.738,148.033
						C858.79,2855.845,855.786,2858.399,852.335,2858.399z"/>
				</g>
				<g>
					<line style="fill:#414B3B;" x1="793.113" y1="3038.915" x2="852.326" y2="2851.406"/>
					<path style="fill:#425736;" d="M793.115,3045.91c-0.698,0-1.407-0.104-2.108-0.326c-3.683-1.163-5.726-5.092-4.563-8.775
						l59.213-187.51c1.163-3.684,5.091-5.73,8.775-4.563c3.683,1.163,5.726,5.092,4.563,8.775l-59.213,187.51
						C798.84,3044.004,796.084,3045.91,793.115,3045.91z"/>
				</g>
				<g>
					<line style="fill:#414B3B;" x1="763.506" y1="3157.342" x2="793.113" y2="3038.915"/>
					<path style="fill:#425736;" d="M763.511,3164.338c-0.562,0-1.132-0.067-1.702-0.21c-3.747-0.938-6.025-4.734-5.089-8.481
						l29.607-118.428c0.937-3.748,4.735-6.025,8.481-5.089c3.747,0.938,6.025,4.734,5.088,8.481l-29.607,118.428
						C769.497,3162.217,766.645,3164.338,763.511,3164.338z"/>
				</g>
				<g>
					<line style="fill:#414B3B;" x1="921.409" y1="2871.144" x2="881.933" y2="3038.915"/>
					<path style="fill:#425736;" d="M881.939,3045.91c-0.53,0-1.069-0.061-1.608-0.188c-3.76-0.885-6.09-4.649-5.206-8.409
						l39.476-167.771c0.884-3.761,4.645-6.095,8.41-5.206c3.76,0.885,6.09,4.649,5.206,8.409l-39.476,167.771
						C887.983,3043.738,885.111,3045.91,881.939,3045.91z"/>
				</g>
				<g>
					<line style="fill:#414B3B;" x1="1069.443" y1="2782.323" x2="891.802" y2="3029.046"/>
					<path style="fill:#425736;" d="M891.796,3036.04c-1.416,0-2.844-0.429-4.081-1.318c-3.135-2.257-3.846-6.628-1.589-9.763
						l177.641-246.723c2.257-3.133,6.629-3.844,9.762-1.589c3.135,2.257,3.846,6.628,1.589,9.763l-177.641,246.723
						C896.111,3035.03,893.969,3036.04,891.796,3036.04z"/>
				</g>
				<g>
					<line style="fill:#414B3B;" x1="1089.181" y1="2851.406" x2="970.753" y2="2920.488"/>
					<path style="fill:#425736;" d="M970.76,2927.483c-2.406,0-4.748-1.243-6.047-3.471c-1.946-3.337-0.819-7.619,2.517-9.565
						l118.427-69.083c3.335-1.946,7.618-0.819,9.565,2.517c1.946,3.337,0.819,7.619-2.517,9.565l-118.427,69.083
						C973.169,2927.176,971.957,2927.483,970.76,2927.483z"/>
				</g>
				<g>
					<line style="fill:#414B3B;" x1="753.637" y1="3167.211" x2="891.802" y2="3048.784"/>
					<path style="fill:#425736;" d="M753.641,3174.205c-1.971,0-3.93-0.829-5.313-2.442c-2.514-2.933-2.174-7.348,0.759-9.861
						l138.165-118.427c2.933-2.516,7.347-2.174,9.861,0.758c2.514,2.933,2.174,7.348-0.759,9.861l-138.165,118.427
						C756.87,3173.651,755.251,3174.205,753.641,3174.205z"/>
				</g>
				<g>
					<line style="fill:#414B3B;" x1="812.851" y1="3256.031" x2="674.686" y2="3374.459"/>
					<path style="fill:#425736;" d="M674.689,3381.453c-1.971,0-3.93-0.829-5.313-2.442c-2.514-2.933-2.174-7.348,0.759-9.861
						l138.165-118.428c2.933-2.516,7.348-2.174,9.861,0.758c2.514,2.933,2.174,7.348-0.759,9.861l-138.165,118.428
						C677.918,3380.899,676.299,3381.453,674.689,3381.453z"/>
				</g>
				<g>
					<line style="fill:#414B3B;" x1="704.293" y1="2989.571" x2="654.948" y2="3107.998"/>
					<path style="fill:#425736;" d="M654.945,3114.993c-0.896,0-1.808-0.173-2.687-0.539c-3.565-1.486-5.251-5.58-3.766-9.146
						l49.345-118.428c1.486-3.566,5.579-5.252,9.146-3.767c3.565,1.486,5.251,5.58,3.766,9.146l-49.345,118.428
						C660.284,3113.374,657.684,3114.993,654.945,3114.993z"/>
				</g>
				<g>
					<line style="fill:#414B3B;" x1="625.341" y1="2762.585" x2="605.603" y2="2861.275"/>
					<path style="fill:#425736;" d="M605.611,2868.27c-0.455,0-0.916-0.045-1.379-0.137c-3.788-0.758-6.244-4.442-5.486-8.229
						l19.738-98.689c0.757-3.787,4.44-6.248,8.229-5.485c3.788,0.757,6.244,4.441,5.486,8.229l-19.738,98.688
						C611.796,2865.971,608.876,2868.27,605.611,2868.27z"/>
				</g>
				<g>
					<line style="fill:#414B3B;" x1="526.652" y1="2723.11" x2="605.603" y2="2881.012"/>
					<path style="fill:#425736;" d="M605.609,2888.008c-2.565,0-5.035-1.417-6.261-3.867l-78.952-157.903
						c-1.728-3.455-0.327-7.656,3.127-9.383c3.457-1.73,7.656-0.326,9.383,3.127l78.952,157.903
						c1.728,3.455,0.327,7.656-3.128,9.384C607.727,2887.771,606.66,2888.008,605.609,2888.008z"/>
				</g>
				<g>
					<line style="fill:#414B3B;" x1="605.603" y1="2851.406" x2="645.079" y2="3127.736"/>
					<path style="fill:#425736;" d="M645.07,3134.729c-3.424,0-6.417-2.517-6.915-6.005l-39.476-276.33
						c-0.546-3.824,2.11-7.366,5.934-7.913c3.826-0.541,7.367,2.111,7.913,5.935l39.476,276.33c0.546,3.824-2.11,7.366-5.934,7.913
						C645.733,3134.707,645.399,3134.729,645.07,3134.729z"/>
				</g>
				<g>
					<line style="fill:#414B3B;" x1="506.914" y1="2890.881" x2="625.341" y2="3009.309"/>
					<path style="fill:#425736;" d="M625.341,3016.303c-1.79,0-3.58-0.684-4.945-2.049l-118.427-118.427
						c-2.731-2.731-2.731-7.159,0-9.891c2.731-2.73,7.159-2.73,9.891,0l118.427,118.427c2.731,2.731,2.731,7.159,0,9.891
						C628.921,3015.619,627.131,3016.303,625.341,3016.303z"/>
				</g>
				<g>
					<line style="fill:#414B3B;" x1="645.079" y1="3127.736" x2="635.21" y2="3364.59"/>
					<path style="fill:#425736;" d="M635.215,3371.584c-0.098,0-0.197-0.002-0.296-0.007c-3.859-0.16-6.857-3.419-6.697-7.278
						l9.869-236.854c0.161-3.858,3.423-6.881,7.279-6.696c3.859,0.16,6.857,3.419,6.697,7.278l-9.869,236.854
						C642.041,3368.641,638.943,3371.584,635.215,3371.584z"/>
				</g>
				<g>
					<line style="fill:#414B3B;" x1="546.39" y1="3177.08" x2="635.21" y2="3364.59"/>
					<path style="fill:#425736;" d="M635.22,3378.581c-5.238,0-10.26-2.956-12.651-8.003l-88.82-187.51
						c-3.307-6.981-0.328-15.322,6.653-18.629c6.981-3.308,15.322-0.327,18.629,6.652l88.82,187.51
						c3.307,6.981,0.328,15.322-6.653,18.629C639.264,3378.146,637.226,3378.581,635.22,3378.581z"/>
				</g>
				<g>
					<line style="fill:#414B3B;" x1="768.441" y1="3152.408" x2="654.948" y2="3384.328"/>
					<path style="fill:#425736;" d="M654.94,3394.82c-1.548,0-3.12-0.344-4.604-1.07c-5.204-2.547-7.358-8.83-4.812-14.034
						l113.493-231.919c2.546-5.203,8.83-7.358,14.034-4.812s7.358,8.83,4.812,14.034l-113.493,231.919
						C662.55,3392.658,658.82,3394.82,654.94,3394.82z"/>
				</g>
				<g>
					<line style="fill:#414B3B;" x1="768.441" y1="3379.393" x2="595.734" y2="3502.755"/>
					<path style="fill:#425736;" d="M595.74,3509.749c-2.182,0-4.332-1.018-5.697-2.929c-2.245-3.144-1.517-7.512,1.626-9.757
						l172.706-123.361c3.143-2.244,7.512-1.518,9.756,1.626c2.245,3.144,1.517,7.512-1.626,9.757l-172.706,123.361
						C598.567,3509.326,597.147,3509.749,595.74,3509.749z"/>
				</g>
				<g>
					<line style="fill:#414B3B;" x1="659.882" y1="3369.524" x2="541.455" y2="3626.116"/>
					<path style="fill:#425736;" d="M541.449,3636.609c-1.471,0-2.966-0.312-4.389-0.968c-5.261-2.429-7.557-8.661-5.129-13.922
						l118.427-256.592c2.427-5.261,8.66-7.554,13.921-5.129c5.261,2.429,7.557,8.661,5.129,13.922L550.98,3630.513
						C549.21,3634.35,545.415,3636.609,541.449,3636.609z"/>
				</g>
				<g>
					<line style="fill:#414B3B;" x1="630.276" y1="3369.524" x2="630.276" y2="3428.738"/>
					<path style="fill:#425736;" d="M630.275,3439.228c-5.794,0-10.491-4.696-10.491-10.49v-59.213
						c0-5.794,4.697-10.49,10.491-10.49s10.491,4.696,10.491,10.49v59.213C640.766,3434.531,636.069,3439.228,630.275,3439.228z"/>
				</g>
				<g>
					<line style="fill:#414B3B;" x1="679.62" y1="3369.524" x2="620.407" y2="3448.476"/>
					<path style="fill:#425736;" d="M620.398,3458.967c-2.19,0-4.399-0.684-6.286-2.099c-4.635-3.477-5.574-10.052-2.098-14.687
						l59.213-78.951c3.476-4.636,10.051-5.573,14.687-2.099c4.635,3.477,5.574,10.052,2.098,14.687l-59.213,78.951
						C626.738,3457.518,623.588,3458.967,620.398,3458.967z"/>
				</g>
				<g>
					<line style="fill:#414B3B;" x1="891.802" y1="2308.615" x2="891.802" y2="2545.469"/>
					<path style="fill:#425736;" d="M891.802,2552.463c-3.862,0-6.994-3.132-6.994-6.994v-236.854c0-3.862,3.131-6.994,6.994-6.994
						s6.994,3.132,6.994,6.994v236.854C898.796,2549.331,895.665,2552.463,891.802,2552.463z"/>
				</g>
			</g>
			<g>
				<g>
					<path style="fill:#414B3B;" d="M807.916,2007.613c0,0-88.82,246.723,88.82,345.412
						C896.737,2353.025,985.557,2116.171,807.916,2007.613z"/>
				</g>
				<g>
					<path style="fill:#414B3B;" d="M738.834,2412.239c0,0-69.082,148.034,69.082,217.116
						C807.916,2629.355,867.13,2451.714,738.834,2412.239z"/>
				</g>
				<g>
					<path style="fill:#414B3B;" d="M975.688,2353.025c0,0,19.738-197.378,148.034-226.985
						C1123.722,2126.04,1133.591,2274.074,975.688,2353.025z"/>
				</g>
				<g>
					<path style="fill:#414B3B;" d="M975.688,2570.142c0,0-9.869-138.165,177.641-217.116c0,0-19.738,128.296-69.082,167.772
						S975.688,2570.142,975.688,2570.142z"/>
				</g>
				<g>
					<path style="fill:#414B3B;" d="M1054.639,2797.127c0,0-9.869-148.034,157.903-256.592c0,0,69.083,138.165-157.903,276.33
						V2797.127z"/>
				</g>
				<g>
					<path style="fill:#414B3B;" d="M679.62,2510.928c0,0-128.296,138.165-59.214,286.199
						C620.407,2797.127,758.572,2619.486,679.62,2510.928z"/>
				</g>
				<g>
					<path style="fill:#414B3B;" d="M511.849,2451.714c0,0-59.214,78.951-49.345,148.034s69.082,148.034,69.082,148.034
						S610.538,2560.272,511.849,2451.714z"/>
				</g>
				<g>
					<path style="fill:#414B3B;" d="M521.717,2905.685c0,0,9.869-128.296-177.641-148.034
						C344.077,2757.651,344.077,2895.816,521.717,2905.685z"/>
				</g>
				<g>
					<path style="fill:#414B3B;" d="M689.489,3014.243c0,0-19.738-217.116,108.558-276.33
						C798.047,2737.913,798.047,3004.374,689.489,3014.243z"/>
				</g>
				<g>
					<path style="fill:#414B3B;" d="M571.062,3201.752c0,0-9.869-167.772-167.772-187.51
						C403.29,3014.243,423.028,3201.752,571.062,3201.752z"/>
				</g>
				<g>
					<path style="fill:#414B3B;" d="M541.455,3497.82c0,0,39.476-177.641-78.951-256.592
						C462.504,3241.228,413.159,3468.213,541.455,3497.82z"/>
				</g>
				<g>
					<path style="fill:#414B3B;" d="M600.669,3626.116c0,0,88.82-177.641,236.854-108.558
						C837.523,3517.558,748.703,3635.985,600.669,3626.116z"/>
				</g>
				<g>
					<path style="fill:#414B3B;" d="M738.834,3399.131c0,0,106.037-114.873,226.135-93.778c6.823,1.198,13.691,2.836,20.588,4.958
						C1113.853,3349.786,738.834,3399.131,738.834,3399.131z"/>
				</g>
				<g>
					<path style="fill:#414B3B;" d="M778.309,3280.704c0,0,69.082-128.296,197.378-148.034
						C975.688,3132.67,946.081,3270.835,778.309,3280.704z"/>
				</g>
				<g>
					<path style="fill:#414B3B;" d="M906.605,3033.981c0,0,157.903-148.034,266.461-88.82
						C1173.066,2945.16,1202.673,3033.981,906.605,3033.981z"/>
				</g>
				<g>
					<path style="fill:#414B3B;" d="M916.474,2905.685c0,0,167.772-226.985,98.689-276.33
						C1015.164,2629.355,867.13,2639.224,916.474,2905.685z"/>
				</g>
				<g>
					<path style="fill:#414B3B;" d="M1054.639,2866.209c0,0,157.903-128.296,226.985-98.689
						C1281.625,2767.52,1301.362,2856.34,1054.639,2866.209z"/>
				</g>
			</g>
		</g>
		<g>
			<g>
				<line style="fill:#414B3B;" x1="-51.291" y1="286.817" x2="-96.479" y2="238.435"/>
				<path style="fill:#425736;" d="M-51.29,293.811c-1.87,0-3.735-0.745-5.113-2.22l-45.188-48.382
					c-2.636-2.823-2.485-7.249,0.337-9.885c2.822-2.636,7.248-2.485,9.885,0.337l45.188,48.382c2.636,2.823,2.485,7.249-0.337,9.885
					C-47.865,293.188-49.58,293.811-51.29,293.811z"/>
			</g>
			<g>
				<line style="fill:#414B3B;" x1="-89.358" y1="304.254" x2="-87.229" y2="241.874"/>
				<path style="fill:#425736;" d="M-89.354,311.248c-0.081,0-0.162-0.001-0.243-0.004c-3.86-0.132-6.883-3.368-6.751-7.229
					l2.129-62.38c0.131-3.86,3.351-6.9,7.229-6.751c3.86,0.132,6.883,3.368,6.751,7.229l-2.129,62.38
					C-82.497,308.271-85.602,311.248-89.354,311.248z"/>
			</g>
			<g>
				<line style="fill:#414B3B;" x1="-320.292" y1="-65.855" x2="-153.537" y2="80.356"/>
				<path style="fill:#425736;" d="M-153.54,87.35c-1.637,0-3.28-0.571-4.608-1.735L-324.903-60.596
					c-2.904-2.546-3.194-6.965-0.648-9.87c2.547-2.904,6.965-3.194,9.87-0.648l166.755,146.211c2.904,2.546,3.194,6.965,0.648,9.87
					C-149.661,86.543-151.595,87.35-153.54,87.35z"/>
			</g>
			<g>
				<line style="fill:#414B3B;" x1="-309.977" y1="-93.607" x2="-72.9" y2="5.042"/>
				<path style="fill:#425736;" d="M-72.903,12.038c-0.896,0-1.805-0.173-2.684-0.539l-237.077-98.648
					c-3.566-1.484-5.254-5.578-3.77-9.144c1.483-3.566,5.575-5.254,9.144-3.77L-70.213-1.415c3.566,1.484,5.254,5.578,3.77,9.144
					C-67.561,10.417-70.163,12.038-72.903,12.038z"/>
			</g>
			<g>
				<line style="fill:#414B3B;" x1="-303.632" y1="-96.513" x2="-322.133" y2="-103.389"/>
				<path style="fill:#728168;" d="M-303.634-86.019c-1.214,0-2.449-0.212-3.654-0.661l-18.501-6.876
					c-5.431-2.019-8.197-8.058-6.178-13.489c2.018-5.43,8.057-8.198,13.488-6.178l18.501,6.876
					c5.431,2.019,8.197,8.058,6.178,13.489C-295.37-88.632-299.375-86.019-303.634-86.019z"/>
			</g>
			<g>
				<g>
					<line style="fill:#414B3B;" x1="-525.646" y1="-179.034" x2="-564.202" y2="-330.237"/>
					
						<rect x="-549.858" y="-332.656" transform="matrix(0.969 -0.2471 0.2471 0.969 46.021 -142.5403)" style="fill:#425736;" width="9.869" height="156.042"/>
				</g>
				<g>
					<line style="fill:#414B3B;" x1="-373.911" y1="-233.185" x2="-536.983" y2="-304.326"/>
					
						<rect x="-460.381" y="-357.713" transform="matrix(0.3999 -0.9166 0.9166 0.3999 -26.9965 -578.7422)" style="fill:#425736;" width="9.869" height="177.915"/>
				</g>
				<g>
					<line style="fill:#414B3B;" x1="-509.763" y1="-278.416" x2="-638.984" y2="-426.468"/>
					<path style="fill:#425736;" d="M-509.759-267.925c-2.925,0-5.834-1.216-7.908-3.592l-129.22-148.052
						c-3.81-4.365-3.36-10.992,1.005-14.802c4.365-3.81,10.992-3.36,14.802,1.005l129.22,148.052
						c3.81,4.365,3.36,10.992-1.005,14.802C-504.854-268.777-507.312-267.925-509.759-267.925z"/>
				</g>
				<g>
					<line style="fill:#414B3B;" x1="-807.825" y1="-694.533" x2="-641.89" y2="-432.813"/>
					<path style="fill:#425736;" d="M-641.88-422.321c-3.474,0-6.872-1.724-8.87-4.875l-165.935-261.72
						c-3.103-4.893-1.651-11.375,3.243-14.477c4.893-3.102,11.375-1.65,14.477,3.243l165.935,261.72
						c3.103,4.893,1.651,11.375-3.243,14.477C-638.015-422.849-639.959-422.321-641.88-422.321z"/>
				</g>
				<g>
					<line style="fill:#414B3B;" x1="535.179" y1="578.504" x2="399.614" y2="433.358"/>
					<path style="fill:#425736;" d="M535.18,585.498c-1.87,0-3.735-0.745-5.113-2.22L394.502,438.132
						c-2.636-2.823-2.485-7.249,0.337-9.885c2.822-2.635,7.248-2.486,9.885,0.337L540.29,573.73
						c2.636,2.823,2.485,7.249-0.337,9.885C538.604,584.875,536.89,585.498,535.18,585.498z"/>
				</g>
				<g>
					<line style="fill:#414B3B;" x1="239.98" y1="352.966" x2="366.05" y2="410.354"/>
					<path style="fill:#425736;" d="M366.045,417.35c-0.969,0-1.954-0.203-2.893-0.63l-126.07-57.388
						c-3.516-1.6-5.068-5.747-3.468-9.263c1.6-3.515,5.746-5.069,9.263-3.468l126.07,57.388c3.516,1.6,5.068,5.747,3.468,9.263
						C371.243,415.827,368.703,417.35,366.045,417.35z"/>
				</g>
				<g>
					<line style="fill:#414B3B;" x1="230.729" y1="349.528" x2="310.791" y2="474.044"/>
					<path style="fill:#425736;" d="M310.797,481.038c-2.3,0-4.553-1.134-5.889-3.212L224.847,353.31
						c-2.089-3.249-1.148-7.576,2.101-9.665c3.247-2.089,7.575-1.148,9.665,2.101l80.062,124.516
						c2.089,3.249,1.148,7.576-2.101,9.665C313.403,480.679,312.093,481.038,310.797,481.038z"/>
				</g>
				<g>
					<line style="fill:#414B3B;" x1="347.304" y1="319.158" x2="187.915" y2="323.086"/>
					<path style="fill:#425736;" d="M187.912,330.079c-3.782,0-6.895-3.019-6.988-6.821c-0.095-3.861,2.958-7.069,6.819-7.164
						l159.389-3.928c3.82-0.103,7.069,2.958,7.164,6.819c0.095,3.861-2.958,7.069-6.819,7.164l-159.389,3.928
						C188.029,330.079,187.97,330.079,187.912,330.079z"/>
				</g>
				<g>
					<line style="fill:#414B3B;" x1="239.98" y1="352.966" x2="108.098" y2="282.89"/>
					<path style="fill:#425736;" d="M239.974,359.961c-1.107,0-2.23-0.264-3.276-0.819l-131.882-70.077
						c-3.411-1.812-4.707-6.046-2.894-9.458c1.812-3.411,6.046-4.707,9.458-2.894l131.882,70.077
						c3.411,1.812,4.707,6.046,2.894,9.458C244.899,358.613,242.478,359.961,239.974,359.961z"/>
				</g>
				<g>
					<line style="fill:#414B3B;" x1="-47.033" y1="162.057" x2="108.098" y2="282.89"/>
					<path style="fill:#425736;" d="M108.093,289.884c-1.502,0-3.016-0.482-4.293-1.477L-51.33,167.575
						c-3.047-2.374-3.594-6.768-1.22-9.815c2.374-3.048,6.767-3.594,9.815-1.22l155.13,120.833c3.047,2.374,3.594,6.768,1.22,9.815
						C112.237,288.958,110.176,289.884,108.093,289.884z"/>
				</g>
				<g>
					<line style="fill:#414B3B;" x1="-147.724" y1="93.045" x2="-47.033" y2="162.057"/>
					<path style="fill:#425736;" d="M-47.039,169.052c-1.362,0-2.739-0.397-3.948-1.226l-100.691-69.013
						c-3.186-2.184-3.999-6.537-1.815-9.723c2.184-3.186,6.537-3.998,9.723-1.815l100.692,69.013
						c3.186,2.184,3.999,6.537,1.815,9.723C-42.619,167.988-44.81,169.052-47.039,169.052z"/>
				</g>
				<g>
					<line style="fill:#414B3B;" x1="65.528" y1="340.767" x2="-77.978" y2="245.312"/>
					<path style="fill:#425736;" d="M65.522,347.761c-1.331,0-2.676-0.379-3.867-1.171l-143.506-95.455
						c-3.216-2.139-4.089-6.48-1.95-9.697c2.14-3.217,6.48-4.088,9.697-1.95l143.506,95.455c3.216,2.139,4.089,6.48,1.95,9.697
						C70.004,346.665,67.784,347.761,65.522,347.761z"/>
				</g>
				<g>
					<line style="fill:#414B3B;" x1="97.208" y1="510.471" x2="-72.166" y2="258.001"/>
					<path style="fill:#425736;" d="M97.214,517.465c-2.253,0-4.465-1.087-5.814-3.098l-169.374-252.47
						c-2.152-3.208-1.296-7.552,1.911-9.704c3.208-2.153,7.552-1.296,9.705,1.911l169.374,252.47
						c2.152,3.208,1.296,7.552-1.911,9.704C99.908,517.081,98.554,517.465,97.214,517.465z"/>
				</g>
				<g>
					<line style="fill:#414B3B;" x1="25.577" y1="504.903" x2="2.084" y2="369.828"/>
					<path style="fill:#425736;" d="M25.569,511.898c-3.337,0-6.291-2.396-6.882-5.797L-4.807,371.026
						c-0.662-3.805,1.886-7.427,5.692-8.088c3.804-0.664,7.426,1.886,8.088,5.692l23.494,135.076
						c0.662,3.805-1.886,7.427-5.692,8.088C26.37,511.864,25.967,511.898,25.569,511.898z"/>
				</g>
				<g>
					<line style="fill:#414B3B;" x1="-153.537" y1="80.356" x2="-90.667" y2="251.124"/>
					<path style="fill:#425736;" d="M-90.666,258.12c-2.848,0-5.523-1.751-6.564-4.58L-160.1,82.772
						c-1.334-3.625,0.522-7.645,4.147-8.979c3.625-1.335,7.645,0.522,8.979,4.147l62.87,170.769
						c1.334,3.625-0.522,7.645-4.147,8.979C-89.048,257.981-89.864,258.12-90.666,258.12z"/>
				</g>
				<g>
					<line style="fill:#414B3B;" x1="-257.422" y1="104.914" x2="-320.292" y2="-65.855"/>
					<path style="fill:#425736;" d="M-257.421,111.909c-2.847,0-5.522-1.751-6.563-4.579l-62.87-170.769
						c-1.334-3.625,0.522-7.645,4.147-8.979c3.623-1.335,7.645,0.521,8.979,4.146l62.87,170.769
						c1.334,3.625-0.522,7.645-4.147,8.979C-255.803,111.77-256.619,111.909-257.421,111.909z"/>
				</g>
				<g>
					<line style="fill:#414B3B;" x1="30.166" y1="95.994" x2="-63.649" y2="8.48"/>
					<path style="fill:#425736;" d="M30.164,102.987c-1.709,0-3.421-0.622-4.769-1.879L-68.42,13.594
						c-2.825-2.635-2.979-7.061-0.344-9.885c2.635-2.825,7.061-2.978,9.885-0.344l93.815,87.514
						c2.825,2.635,2.979,7.061,0.344,9.885C33.902,102.241,32.035,102.987,30.164,102.987z"/>
				</g>
				<g>
					<line style="fill:#414B3B;" x1="270.436" y1="101.072" x2="184.807" y2="48.187"/>
					<path style="fill:#425736;" d="M270.429,108.066c-1.254,0-2.523-0.337-3.668-1.044l-85.629-52.885
						c-3.287-2.029-4.305-6.339-2.275-9.625c2.029-3.287,6.338-4.306,9.625-2.275l85.629,52.885
						c3.287,2.029,4.305,6.339,2.275,9.625C275.064,106.888,272.773,108.066,270.429,108.066z"/>
				</g>
				<g>
					<line style="fill:#414B3B;" x1="341.822" y1="22.319" x2="166.306" y2="41.31"/>
					<path style="fill:#425736;" d="M166.297,48.304c-3.525,0-6.557-2.657-6.944-6.242c-0.416-3.84,2.361-7.29,6.201-7.706
						L341.07,15.366c3.83-0.418,7.29,2.36,7.706,6.201c0.416,3.84-2.361,7.29-6.201,7.706L167.058,48.263
						C166.803,48.291,166.548,48.304,166.297,48.304z"/>
				</g>
				<g>
					<line style="fill:#414B3B;" x1="194.057" y1="51.625" x2="-78.712" y2="-7.647"/>
					<path style="fill:#425736;" d="M194.064,58.62c-0.492,0-0.992-0.052-1.492-0.161L-80.197-0.813
						c-3.774-0.82-6.169-4.545-5.35-8.319c0.82-3.774,4.547-6.168,8.319-5.349l272.77,59.271c3.774,0.82,6.169,4.545,5.35,8.319
						C200.181,56.384,197.284,58.62,194.064,58.62z"/>
				</g>
				<g>
					<line style="fill:#414B3B;" x1="191.439" y1="-54.634" x2="39.172" y2="15.112"/>
					<path style="fill:#425736;" d="M39.176,22.108c-2.651,0-5.187-1.515-6.363-4.083c-1.608-3.512-0.066-7.663,3.446-9.271
						l152.268-69.747c3.513-1.608,7.663-0.065,9.271,3.446c1.608,3.512,0.066,7.663-3.446,9.271L42.084,21.471
						C41.14,21.903,40.15,22.108,39.176,22.108z"/>
				</g>
				<g>
					<line style="fill:#414B3B;" x1="-78.712" y1="-7.647" x2="-297.288" y2="-99.419"/>
					<path style="fill:#425736;" d="M-78.715-0.651c-0.903,0-1.82-0.176-2.705-0.547l-218.575-91.772
						c-3.562-1.495-5.236-5.594-3.741-9.156c1.495-3.562,5.593-5.238,9.156-3.741l218.575,91.772
						c3.562,1.495,5.236,5.594,3.741,9.156C-73.388-2.263-75.983-0.651-78.715-0.651z"/>
				</g>
				<g>
					<line style="fill:#414B3B;" x1="-90.581" y1="-117.345" x2="-297.288" y2="-99.419"/>
					<path style="fill:#425736;" d="M-297.304-85.431c-7.179,0-13.287-5.494-13.919-12.78c-0.667-7.696,5.03-14.476,12.727-15.144
						L-91.79-131.28c7.689-0.673,14.476,5.03,15.144,12.727c0.667,7.696-5.03,14.476-12.727,15.144l-206.706,17.926
						C-296.49-85.448-296.899-85.431-297.304-85.431z"/>
				</g>
				<g>
					<line style="fill:#414B3B;" x1="-144.818" y1="99.389" x2="-322.666" y2="-87.794"/>
					<path style="fill:#425736;" d="M-144.817,109.88c-2.775,0-5.544-1.094-7.607-3.265L-330.271-80.568
						c-3.991-4.2-3.821-10.84,0.379-14.831c4.2-3.991,10.84-3.821,14.831,0.379l177.847,187.184c3.991,4.2,3.821,10.84-0.379,14.831
						C-139.622,108.923-142.222,109.88-144.817,109.88z"/>
				</g>
				<g>
					<line style="fill:#414B3B;" x1="-357.582" y1="20.306" x2="-413.042" y2="-184.558"/>
					<path style="fill:#425736;" d="M-357.586,27.302c-3.081,0-5.903-2.052-6.746-5.168l-55.461-204.865
						c-1.009-3.729,1.195-7.569,4.923-8.578c3.727-1.011,7.569,1.195,8.578,4.923l55.461,204.865
						c1.009,3.729-1.195,7.569-4.923,8.578C-356.366,27.223-356.981,27.302-357.586,27.302z"/>
				</g>
				<g>
					<line style="fill:#414B3B;" x1="-310.509" y1="-78.011" x2="-509.763" y2="-278.416"/>
					<path style="fill:#425736;" d="M-310.509-67.521c-2.695,0-5.389-1.032-7.439-3.094L-517.203-271.02
						c-4.085-4.108-4.066-10.751,0.043-14.836c4.108-4.084,10.751-4.065,14.836,0.043l199.254,200.404
						c4.085,4.108,4.066,10.751-0.043,14.836C-305.159-68.538-307.834-67.521-310.509-67.521z"/>
				</g>
				<g>
					<line style="fill:#414B3B;" x1="-300.194" y1="-105.763" x2="-355.697" y2="-126.393"/>
					<path style="fill:#425736;" d="M-300.195-95.27c-1.214,0-2.449-0.212-3.653-0.66l-55.503-20.63
						c-5.431-2.019-8.197-8.058-6.179-13.488s8.058-8.197,13.488-6.179l55.503,20.63c5.431,2.019,8.197,8.058,6.179,13.488
						C-291.931-97.882-295.937-95.27-300.195-95.27z"/>
				</g>
				<g>
					<line style="fill:#414B3B;" x1="-317.386" y1="-59.51" x2="-370.76" y2="-142.521"/>
					<path style="fill:#425736;" d="M-317.376-49.019c-3.45,0-6.829-1.7-8.833-4.818l-53.375-83.011
						c-3.134-4.874-1.723-11.364,3.15-14.498c4.874-3.134,11.364-1.723,14.498,3.15l53.375,83.011
						c3.134,4.874,1.723,11.364-3.15,14.498C-313.468-49.558-315.433-49.019-317.376-49.019z"/>
				</g>
				<g>
					<line style="fill:#414B3B;" x1="603.126" y1="509.003" x2="381.112" y2="426.482"/>
					<path style="fill:#425736;" d="M603.125,515.998c-0.81,0-1.632-0.142-2.436-0.44l-222.014-82.521
						c-3.621-1.346-5.465-5.372-4.119-8.992s5.37-5.465,8.992-4.119l222.014,82.521c3.621,1.346,5.465,5.372,4.119,8.992
						C608.635,514.256,605.965,515.998,603.125,515.998z"/>
				</g>
			</g>
			<g>
				<g>
					<path style="fill:#414B3B;" d="M914.495,535.243c0,0-200.319-169.215-354.716-37.088
						C559.78,498.155,750.848,663.931,914.495,535.243z"/>
				</g>
				<g>
					<path style="fill:#414B3B;" d="M559.29,329.516c0,0-114.69-116.33-227.581-10.89
						C331.709,318.625,477.589,436.02,559.29,329.516z"/>
				</g>
				<g>
					<path style="fill:#414B3B;" d="M532.273,572.16c0,0,178.135,87.269,161.188,217.841
						C693.46,790.001,551.263,747.676,532.273,572.16z"/>
				</g>
				<g>
					<path style="fill:#414B3B;" d="M328.76,496.516c0,0,132.946,38.887,141.622,242.155c0,0-113.381-63.2-133.191-123.206
						S328.76,496.516,328.76,496.516z"/>
				</g>
				<g>
					<path style="fill:#414B3B;" d="M88.49,491.437c0,0,142.197,42.325,185.501,237.407c0,0-153.577,16.617-204.002-244.284
						L88.49,491.437z"/>
				</g>
				<g>
					<path style="fill:#414B3B;" d="M487.415,239.628c0,0-84.809-168.395-247.637-155.216
						C239.778,84.412,358.151,275.811,487.415,239.628z"/>
				</g>
				<g>
					<path style="fill:#414B3B;" d="M601.37,102.999c0,0-53.374-83.01-121.567-97.829S316.976,18.349,316.976,18.349
						S465.23,157.683,601.37,102.999z"/>
				</g>
				<g>
					<path style="fill:#414B3B;" d="M172.406-45.916c0,0,116.819,53.949,200.649-114.935
						C373.055-160.851,243.547-208.988,172.406-45.916z"/>
				</g>
				<g>
					<path style="fill:#414B3B;" d="M12.197,73.522c0,0,210.389,57.143,221.194,198.031
						C233.391,271.553-16.375,178.717,12.197,73.522z"/>
				</g>
				<g>
					<path style="fill:#414B3B;" d="M-122.304-102.814c0,0,160.698,49.202,234.213-91.931
						C111.91-194.745-70.728-241.573-122.304-102.814z"/>
				</g>
				<g>
					<path style="fill:#414B3B;" d="M-389.506-233.717c0,0,152.757,98.893,268.022,15.393
						C-121.484-218.324-317.055-343.66-389.506-233.717z"/>
				</g>
				<g>
					<path style="fill:#414B3B;" d="M-530.394-222.913c0,0,135.565,145.146,19.235,259.836
						C-511.158,36.923-591.22-87.592-530.394-222.913z"/>
				</g>
				<g>
					<path style="fill:#414B3B;" d="M-365.768-14.322c0,0,70.732,139.415,9.116,244.639c-3.5,5.978-7.428,11.845-11.82,17.571
						C-450.173,354.392-365.768-14.322-365.768-14.322z"/>
				</g>
				<g>
					<path style="fill:#414B3B;" d="M-268.514,63.941c0,0,96.189,109.453,69.991,236.587
						C-198.523,300.528-317.716,224.639-268.514,63.941z"/>
				</g>
				<g>
					<path style="fill:#414B3B;" d="M-81.949,270.158c0,0,83.745,199.585-9.581,280.711
						C-91.53,550.869-185.1,547.675-81.949,270.158z"/>
				</g>
				<g>
					<path style="fill:#414B3B;" d="M34.87,324.107c0,0,154.311,236.342,224.632,188.78
						C259.503,512.888,301.828,370.691,34.87,324.107z"/>
				</g>
				<g>
					<path style="fill:#414B3B;" d="M23.735,467.369c0,0,65.243,192.708,13.423,247.147
						C37.159,714.516-52.973,702.072,23.735,467.369z"/>
				</g>
			</g>
		</g>
		<g>
			<g>
				<path style="fill:#97AE87;" d="M918.544,901.819c0,0-114.505-259.551-167.913-281.531
					c-53.408-21.98-214.303,6.246-214.303,6.246S854.453,786.645,918.544,901.819z"/>
			</g>
			<g>
				<path style="fill:#97AE87;" d="M916.402,933.492c0,0-207.108-33.444-320.981-117.627l-83.63-205.784
					C511.791,610.08,980.207,830.273,916.402,933.492z"/>
			</g>
			<g>
				<path style="fill:#97AE87;" d="M529.974,777.103l-205.435-92.289c0,0,6.455-97.104-27.977-163.659
					c0,0,98.809,14.469,200.472,76.086C564.69,638.246,529.974,777.103,529.974,777.103z"/>
			</g>
			<g>
				<path style="fill:#97AE87;" d="M291.774,680.998l-55.938-30.637c0,0-10.516-100.293-62.322-165.027
					c0,0,83.133,2.055,109.879,38.366C358.542,625.721,291.774,680.998,291.774,680.998z"/>
			</g>
			<g>
				<path style="fill:#97AE87;" d="M196.194,643.456c0,0-60.415-36.23-146.176-49.281s-60.214-21.97-60.214-21.97
					s-1.41-99.819-36.077-130.707S165.458,487,165.458,487S235.597,605.817,196.194,643.456z"/>
			</g>
			<g>
				<path style="fill:#97AE87;" d="M-33.074,565.756c0,0-39.69-7.195-69.656-45.422s12.255-22.375-64.457-108.021l130.258,27.712
					C-36.929,440.024-1.508,561.23-33.074,565.756z"/>
			</g>
			<g>
				<path style="fill:#97AE87;" d="M753.952,601.779c0,0-217.822-166.568-333.829-193.746s-41.852,91.366-210.225,89.257
					l295.12,120.856C505.018,618.146,665.914,589.92,753.952,601.779z"/>
			</g>
			<g>
				<path style="fill:#97AE87;" d="M354.545,368.934l-191.66-43.231l-21.642,10.875l-193.786,97.375l211.66,45.832
					C159.117,479.785,305.561,529.1,354.545,368.934z"/>
			</g>
			<g>
				<path style="fill:#97AE87;" d="M-71.015,325.634c0,0,114.348-9.173,165.424-3.236C159,329.906-82.173,434.046-82.173,434.046
					l-119.387-20.478c-3.423-0.587-3.995-5.27-0.807-6.651C-176.977,395.915-113.447,366.019-71.015,325.634z"/>
			</g>
			<g>
				<path style="fill:#97AE87;" d="M926.213,917.917c0,0-391.348-487.034-1283.587-517.592
					C-357.374,400.325,470.27,402.775,926.213,917.917z"/>
			</g>
			<g>
				<path style="fill:#878F80;" d="M893.027,878.713c0,0-384.135-440.241-1259.058-475.858
					C-366.031,402.855,384.762,399.573,893.027,878.713z"/>
				<path style="fill:#728168;" d="M893.027,881.902c-0.786,0-1.573-0.289-2.188-0.869
					C775.15,771.974,637.096,679.139,480.512,605.106C355.204,545.861,217.817,498.458,72.168,464.211
					c-58.684-13.798-114.035-24.325-164.356-32.354c-88.937-13.374-180.443-22.008-273.973-25.815
					c-1.731-0.07-3.09-1.511-3.059-3.244c0.032-1.732,1.441-3.123,3.175-3.131c1.416-0.001,111.77-0.088,274.426,25.827
					c100.997,15.171,198.707,36.44,292.315,63.679c140.946,41.014,272.985,95.58,392.451,162.183
					c106.323,59.276,182.805,117.32,228.242,155.574c49.301,41.507,73.799,69.41,74.041,69.687c1.118,1.282,1.034,3.215-0.191,4.395
					C894.622,881.605,893.825,881.902,893.027,881.902z"/>
			</g>
		</g>
		<g>
			<g>
				<path style="fill:#829676;" d="M635.676,1501.247c0,0-140.278,286.443-201.914,305.891
					c-61.636,19.448-243.704-30.772-243.704-30.772S558.312,1626.894,635.676,1501.247z"/>
			</g>
			<g>
				<path style="fill:#829676;" d="M634.45,1464.521c0,0-237.034,15.748-369.878,100.213l-103.075,227.893
					C161.497,1792.626,703.128,1590.462,634.45,1464.521z"/>
			</g>
			<g>
				<path style="fill:#829676;" d="M188.588,1602.192l-237.381,83.731c0,0,3.63,112.588-38.111,185.481
					c0,0,113.029-5.801,231.112-65.608C222.791,1765.995,188.588,1602.192,188.588,1602.192z"/>
			</g>
			<g>
				<path style="fill:#829676;" d="M-86.236,1686.714l-64.847,29.145c0,0-15.809,114.395-77.259,183.278
					c0,0,94.709,6.778,126.545-32.115C-12.349,1757.747-86.236,1686.714-86.236,1686.714z"/>
			</g>
			<g>
				<path style="fill:#829676;" d="M-196.473,1719.453c0,0-70.158,35.096-168.28,40.698s-69.383,18.688-69.383,18.688
					s-5.426,114.851-46.07,146.625s242.757-29.133,242.757-29.133S-153.06,1767.154-196.473,1719.453z"/>
			</g>
			<g>
				<path style="fill:#829676;" d="M-460.425,1783.753c0,0-45.455,3.923-81.028,44.67s13.093,27.128-77.507,117.365l149.335-17.598
					C-469.626,1928.19-424.666,1792.441-460.425,1783.753z"/>
			</g>
			<g>
				<path style="fill:#829676;" d="M436.833,1828.83c0,0-254.325,167.948-387.417,186.499s-44.143-109.87-235.885-125.964
					l340.565-106.777C154.096,1782.588,336.165,1832.808,436.833,1828.83z"/>
			</g>
			<g>
				<path style="fill:#829676;" d="M-26.729,2053.162l-219.823,28.724l-24.219-14.91l-216.861-133.508l242.689-29.52
					C-244.943,1903.947-76.356,1863.239-26.729,2053.162z"/>
			</g>
			<g>
				<path style="fill:#829676;" d="M-512.806,2056.235c0,0,129.812,23.148,188.18,21.926
					c73.812-1.544-196.731-148.06-196.731-148.06l-136.683,10.46c-3.919,0.3-4.749,5.632-1.174,7.574
					C-630.733,1963.604-559.56,2005.038-512.806,2056.235z"/>
			</g>
			<g>
				<path style="fill:#829676;" d="M645.021,1483.544c0,0-464.119,518.082-1480.932,455.133
					C-835.911,1938.677,106.297,2026.903,645.021,1483.544z"/>
			</g>
			<g>
				<path style="fill:#829676;" d="M605.745,1525.061c0,0-454.117,464.962-1451.414,409.749
					C-845.669,1934.81,8.84,2021.186,605.745,1525.061z"/>
				<path style="fill:#728168;" d="M-694.151,1944.229c-2.956,0-5.845-0.006-8.688-0.017c-88.589-0.343-142.662-5.709-143.197-5.763
					c-1.978-0.2-3.434-1.943-3.279-3.925c0.155-1.981,1.867-3.49,3.849-3.367c106.517,5.896,210.94,6.02,312.602,0.411
					c57.71-3.717,121.264-9.767,188.753-19.236c167.06-23.441,325.217-62.944,470.079-117.411
					c180.997-68.054,341.631-159.793,477.44-272.673c1.497-1.243,3.706-1.098,5.026,0.333c1.32,1.43,1.289,3.644-0.071,5.036
					c-0.286,0.293-29.26,29.766-86.99,72.18c-53.198,39.085-142.499,97.559-265.822,154.168
					c-138.558,63.604-290.968,111.952-452.998,143.704c-106.999,20.968-218.406,34.689-333.269,41.106
					C-594.918,1942.976-650.588,1944.229-694.151,1944.229z"/>
			</g>
		</g>
		<g>
			<g>
				<path style="fill:#9BAB92;" d="M685.329,1600.032c0,0-80.952-271.891-131.171-300.413s-213.387-20.756-213.387-20.756
					S636.232,1477.712,685.329,1600.032z"/>
			</g>
			<g>
				<path style="fill:#9BAB92;" d="M679.22,1631.183c0,0-201.258-59.226-303.638-157.063l-57.085-214.668
					C318.497,1259.452,755.5,1536.809,679.22,1631.183z"/>
			</g>
			<g>
				<path style="fill:#9BAB92;" d="M315.529,1427.435l-192.196-117.394c0,0,18.616-95.521-7.171-165.878
					c0,0,96.204,26.781,189.311,100.695C367.434,1294.047,315.529,1427.435,315.529,1427.435z"/>
			</g>
			<g>
				<path style="fill:#9BAB92;" d="M91.308,1302.135l-51.64-37.429c0,0,2.182-100.819-41.072-171.554
					c0,0,82.214,12.494,104.182,51.881C164.498,1255.694,91.308,1302.135,91.308,1302.135z"/>
			</g>
			<g>
				<path style="fill:#9BAB92;" d="M1.208,1252.87c0,0-55.379-43.54-138.817-67.274c-83.438-23.734-56.972-29.368-56.972-29.368
					s11.156-99.204-19.351-134.207s204.327,71.771,204.327,71.771S45.033,1220.485,1.208,1252.87z"/>
			</g>
			<g>
				<path style="fill:#9BAB92;" d="M-216.467,1146.952c0,0-38.47-12.13-63.39-53.822s14.972-20.656-50.359-115.27l125.738,43.874
					C-204.478,1021.734-184.582,1146.431-216.467,1146.952z"/>
			</g>
			<g>
				<path style="fill:#9BAB92;" d="M559.779,1281.674c0,0-195.143-192.641-306.81-234.193
					c-111.667-41.552-53.011,85.376-219.782,62.109l277.577,157.013C310.764,1266.602,473.932,1258.836,559.779,1281.674z"/>
			</g>
			<g>
				<path style="fill:#9BAB92;" d="M192.829,1000.444L8.128,933.451l-22.838,8.067l-204.494,72.229l204.215,72.089
					C-14.989,1085.835,124.09,1153.177,192.829,1000.444z"/>
			</g>
			<g>
				<path style="fill:#9BAB92;" d="M-223.907,903.964c0,0,114.594,5.282,164.517,17.595
					c63.134,15.572-189.221,88.553-189.221,88.553l-115.863-35.331c-3.322-1.013-3.3-5.73,0.035-6.7
					C-337.866,960.361-271.08,938.692-223.907,903.964z"/>
			</g>
			<g>
				<path style="fill:#9BAB92;" d="M690.912,1616.966c0,0-326.986-532.387-1208.297-674.919
					C-517.385,942.048,303.378,1048.571,690.912,1616.966z"/>
			</g>
			<g>
				<path style="fill:#9BAB92;" d="M662.92,1573.9c0,0-325.716-485.058-1189.212-630.431
					C-526.292,943.469,218.952,1034.64,662.92,1573.9z"/>
				<path style="fill:#728168;" d="M662.922,1577.09c-0.922,0-1.835-0.399-2.464-1.163
					c-101.054-122.744-226.336-232.205-372.366-325.343c-116.861-74.534-247.195-138.841-387.38-191.134
					c-56.482-21.069-110.066-38.473-158.977-52.767c-86.549-24.453-176.248-44.529-268.556-60.069
					c-1.709-0.288-2.875-1.888-2.626-3.603s1.824-2.917,3.543-2.707c1.424,0.174,110.908,13.973,269.007,60.138
					c98.287,27.753,192.538,61.14,281.977,99.936c134.668,58.415,258.797,129.154,368.937,210.254
					c98.024,72.178,166.598,139.38,206.863,183.045c43.689,47.378,64.483,78.141,64.688,78.446c0.948,1.412,0.621,3.319-0.743,4.335
					C664.254,1576.883,663.585,1577.09,662.922,1577.09z"/>
			</g>
		</g>
		<g>
			<g>
				<path style="fill:#829676;" d="M933.49,734.115c0,0-240.331-150.728-296.879-138.986
					c-56.548,11.742-173.954,125.319-173.954,125.319S815.847,674.676,933.49,734.115z"/>
			</g>
			<g>
				<path style="fill:#829676;" d="M949.472,761.543c0,0-190.248,88.419-331.738,82.551L433.113,720.578
					C433.113,720.578,944.438,640.3,949.472,761.543z"/>
			</g>
			<g>
				<path style="fill:#829676;" d="M541.809,848.689l-221.853,38.753c0,0-49.095-84.027-114.92-119.835
					c0,0,89.932-43.414,208.66-49.388C492.707,714.244,541.809,848.689,541.809,848.689z"/>
			</g>
			<g>
				<path style="fill:#829676;" d="M290.685,902.653l-63.496,5.991c0,0-64.936-77.153-144.127-101.712
					c0,0,69.991-44.906,112.496-29.833C314.982,819.447,290.685,902.653,290.685,902.653z"/>
			</g>
			<g>
				<path style="fill:#829676;" d="M190.491,925.152c0,0-70.339,3.871-148.671,41.144s-62.178,15.566-62.178,15.566
					s-57.13-81.866-103.153-88.008s200.837-81.025,200.837-81.025S202.017,871.892,190.491,925.152z"/>
			</g>
			<g>
				<path style="fill:#829676;" d="M-42.919,989.347c0,0-36.9,16.294-83.144,1.439s-2.397-25.399-113.935-53.311l123.398-50.081
					C-116.601,887.395-19.318,967.902-42.919,989.347z"/>
			</g>
			<g>
				<path style="fill:#829676;" d="M628.983,577.94c0,0-273.754-15.81-385.052,26.723c-111.298,42.533,16.567,99.12-124.038,191.771
					l312.134-65.38C432.027,731.054,549.433,617.477,628.983,577.94z"/>
			</g>
			<g>
				<path style="fill:#829676;" d="M167.708,609.053l-182.943,71.654l-11.824,21.139l-105.875,189.276l200.962-80.713
					C68.029,810.408,216.941,769.142,167.708,609.053z"/>
			</g>
			<g>
				<path style="fill:#829676;" d="M-208.958,811.783c0,0,89.545-71.703,135.167-95.422c57.695-29.995-83.626,191.45-83.626,191.45
					l-110.34,49.976c-3.164,1.433-6.262-2.124-4.397-5.055C-257.298,929.386-221.452,869.012-208.958,811.783z"/>
			</g>
			<g>
				<path style="fill:#829676;" d="M948.865,743.146c0,0-597.11-183.89-1353.07,291.029
					C-404.205,1034.175,282.508,572.196,948.865,743.146z"/>
			</g>
			<g>
				<path style="fill:#829676;" d="M899.406,729.288c0,0-564.903-149.186-1309.361,311.836
					C-409.956,1041.124,209.907,617.483,899.406,729.288z"/>
				<path style="fill:#728168;" d="M-409.953,1044.313c-1.044,0-2.065-0.512-2.676-1.45c-0.945-1.453-0.558-3.395,0.874-4.373
					c1.184-0.81,92.511-62.74,241.723-132.469c92.137-44.06,184.969-81.227,277.753-111.151
					c139.706-45.058,279.635-73.9,415.899-85.725c121.275-10.525,217.147-5.34,276.22,0.864
					c64.094,6.73,100.024,16.101,100.379,16.195c1.645,0.434,2.659,2.083,2.305,3.746c-0.354,1.664-1.952,2.755-3.629,2.485
					c-156.909-25.444-323.238-24.924-494.367,1.544c-136.957,21.183-277.278,58.938-417.066,112.217
					c-56.47,21.523-108.322,43.891-154.589,65.506c-81.079,38.765-161.629,82.888-241.15,132.132
					C-408.799,1044.158-409.379,1044.313-409.953,1044.313z"/>
			</g>
		</g>
		<g>
			<g>
				<path style="fill:#627159;" d="M652.536,896.6c0,0-388.933,49.697-439.052,111.826s-75.966,286.421-75.966,286.421
					S474.729,936.25,652.536,896.6z"/>
			</g>
			<g>
				<path style="fill:#627159;" d="M693.661,911.889c0,0-125.729,261.285-282.04,379.08l-305.552,29.922
					C106.069,1320.892,581.972,786.769,693.661,911.889z"/>
			</g>
			<g>
				<path style="fill:#627159;" d="M334.532,1362.454l-203.045,235.935c0,0-126.131-46.724-227.856-27.263
					c0,0,58.014-125.24,179.624-235.729C164.185,1261.868,334.532,1362.454,334.532,1362.454z"/>
			</g>
			<g>
				<path style="fill:#627159;" d="M113.552,1640.306l-62.585,62.078c0,0-137.028-25.491-243.169,17.709
					c0,0,35.403-109.348,94.03-130.516C66.552,1530.104,113.552,1640.306,113.552,1640.306z"/>
			</g>
			<g>
				<path style="fill:#627159;" d="M26.233,1752.198c0,0-71.756,65.812-122.762,174.32s-52.781,71.151-52.781,71.151
					s-132.821-37.37-187.377-3.577s143.525-262.67,143.525-262.67S-8.152,1685.189,26.233,1752.198z"/>
			</g>
			<g>
				<path style="fill:#627159;" d="M-166.849,2025.448c0,0-25.136,49.764-87.569,74.442
					c-62.433,24.679-24.831-25.034-168.473,42.947l87.924-161.707C-334.967,1981.131-160.438,1981.842-166.849,2025.448z"/>
			</g>
			<g>
				<path style="fill:#627159;" d="M190.263,996.751c0,0-306.338,223.15-387.953,366.182s104.613,91.372,35.632,313.648
					l276.153-343.545C114.094,1333.036,139.941,1108.744,190.263,996.751z"/>
			</g>
			<g>
				<path style="fill:#627159;" d="M-275.278,1434.458l-132.625,236.967l5.902,32.953l52.85,295.056l143.933-262.446
					C-205.216,1736.988-82.303,1562.326-275.278,1434.458z"/>
			</g>
			<g>
				<path style="fill:#627159;" d="M-499.941,1981.331c0,0,32.796-155.124,60.74-220.469c35.339-82.636,78.526,277.87,78.526,277.87
					l-74.065,150.146c-2.124,4.305-8.553,3.221-9.13-1.545C-448.467,2149.365-463.107,2053.43-499.941,1981.331z"/>
			</g>
			<g>
				<path style="fill:#627159;" d="M676.881,892.767c0,0-799.189,327.108-1190.417,1497.367
					C-513.537,2390.135-184.945,1294.419,676.881,892.767z"/>
			</g>
			<g>
				<path style="fill:#627159;" d="M611.888,921.329c0,0-734.349,335.945-1125.476,1481.272
					C-513.587,2402.601-222.801,1406.464,611.888,921.329z"/>
				<path style="fill:#728168;" d="M-513.586,2407.009c-0.441,0-0.889-0.066-1.331-0.206c-2.284-0.723-3.572-3.138-2.901-5.438
					c0.182-0.624,18.695-63.618,58.615-163.625c20.161-50.508,48.203-116.403,84.482-191.986
					c59.549-127.085,125.801-247.467,198.289-360.171c109.751-170.64,233.96-324.15,369.175-456.268
					c120.34-117.583,227.316-196.109,295.867-241.279c74.379-49.01,120.983-70.503,121.445-70.715
					c2.137-0.976,4.667-0.105,5.748,1.981c1.081,2.088,0.333,4.656-1.699,5.837c-189.949,110.401-367.198,256.802-526.822,435.134
					c-127.749,142.721-244.562,306.099-347.192,485.594c-41.37,72.353-76.92,141.317-106.846,203.662
					c-52.986,113.081-100.647,231.471-142.66,354.496C-510.041,2405.854-511.75,2407.009-513.586,2407.009z"/>
			</g>
		</g>
		<g>
			<g>
				<path style="fill:#627159;" d="M810.435,1801.632c0,0,48.898,439.277-15.147,509.176s-339.772,151.803-339.772,151.803
					S811.417,2006.493,810.435,1801.632z"/>
			</g>
			<g>
				<path style="fill:#627159;" d="M779.33,1760.083c0,0-293.757,200.496-397.595,400.375l49.929,342.928
					C431.664,2503.385,969.339,1852.981,779.33,1760.083z"/>
			</g>
			<g>
				<path style="fill:#627159;" d="M313.62,2262.226L74.057,2541.643c0,0,95.188,127.469,99.819,243.903
					c0,0,141.451-93.629,246.026-253.629C489.494,2425.439,313.62,2262.226,313.62,2262.226z"/>
			</g>
			<g>
				<path style="fill:#627159;" d="M26.29,2571.352l-60.403,83.587c0,0,71.511,144.508,47.44,271.458
					c0,0,127.879-64.989,137.773-134.468C178.898,2596.717,26.29,2571.352,26.29,2571.352z"/>
			</g>
			<g>
				<path style="fill:#627159;" d="M-89.9,2694.002c0,0-62.485,94.555-184.824,176.491c-122.339,81.937-74.67,74.976-74.67,74.976
					s85.3,137.052,58.298,205.068c-27.002,68.016,290.397-220.383,290.397-220.383S4.561,2715.806-89.9,2694.002z"/>
			</g>
			<g>
				<path style="fill:#627159;" d="M-379.43,2971.371c0,0-55.607,39.493-68.841,113.992c-13.234,74.499,38.73,21.317-5.859,195.39
					l178.901-135.198C-275.229,3145.555-326.221,2953.924-379.43,2971.371z"/>
			</g>
			<g>
				<path style="fill:#627159;" d="M816.692,2333.542c0,0-193.775,389.883-350.913,513.692
					c-157.138,123.81-145.375-93.171-406.176,35.656l354.426-385.427C414.029,2497.463,689.756,2415.558,816.692,2333.542z"/>
			</g>
			<g>
				<path style="fill:#627159;" d="M397.756,2949.561l-261.079,202.274l-43.293,1.374l-387.647,12.299l289.998-220.779
					C-4.266,2944.728,180.947,2767.989,397.756,2949.561z"/>
			</g>
			<g>
				<path style="fill:#627159;" d="M-228.129,3326.903c0,0,186.415-73.043,260.885-119.34
					c94.176-58.548-373.322-20.017-373.322-20.017l-168.284,117.209c-4.826,3.361-1.612,10.168,4.57,9.665
					C-455.028,3310.416-329.719,3303.623-228.129,3326.903z"/>
			</g>
			<g>
				<path style="fill:#627159;" d="M808.287,1773.963c0,0-183.549,956.306-1548.585,1665.394
					C-740.298,3439.357,548.612,2816.885,808.287,1773.963z"/>
			</g>
			<g>
				<path style="fill:#627159;" d="M790.885,1852.2c0,0-213.316,887.157-1546.906,1590.186
					C-756.021,3442.386,418.034,2885.213,790.885,1852.2z"/>
				<path style="fill:#728168;" d="M-756.018,3447.705c-1.952,0-3.828-1.08-4.759-2.938c-1.295-2.588-0.284-5.736,2.275-7.085
					c143.249-75.517,279.039-156.143,406.583-241.344c70.119-47.761,146.975-103.278,226.444-166.003
					c197.138-155.602,369.854-322.939,513.351-497.365c179.274-217.914,313.183-447.566,398.006-682.575
					c0.959-2.655,3.824-4.098,6.529-3.288c2.704,0.811,4.304,3.592,3.644,6.337c-0.134,0.559-13.909,56.978-54.459,150.476
					c-37.359,86.141-105.807,222.479-219.732,382.818c-127.989,180.133-286.142,353.266-470.065,514.59
					c-121.466,106.541-254.438,208.076-397.767,303.826c-84.986,57.886-160.116,104.417-218.078,138.613
					c-114.772,67.714-188.958,103.074-189.694,103.424C-754.477,3447.539-755.253,3447.705-756.018,3447.705z"/>
			</g>
		</g>
		<g>
			<g>
				<path style="fill:#9BAB92;" d="M1181.977,2367.597c0,0-29.016,221.428-67.672,249.88s-179.059,42.84-179.059,42.84
					S1158.103,2468.802,1181.977,2367.597z"/>
			</g>
			<g>
				<path style="fill:#9BAB92;" d="M1172.172,2344.153c0,0-163.037,71.219-235.994,160.066l-17.08,173.971
					C919.097,2678.19,1251.183,2407.947,1172.172,2344.153z"/>
			</g>
			<g>
				<path style="fill:#9BAB92;" d="M891.805,2548.016l-146.73,115.288c0,0,29.967,71.902,18.329,129.807
					c0,0,78.16-32.855,146.729-101.95C955.764,2645.18,891.805,2548.016,891.805,2548.016z"/>
			</g>
			<g>
				<path style="fill:#9BAB92;" d="M718.908,2673.457l-38.557,35.552c0,0,16.722,78.077-9.768,138.462c0,0,68.325-20,81.269-53.359
					C788.218,2700.387,718.908,2673.457,718.908,2673.457z"/>
			</g>
			<g>
				<path style="fill:#9BAB92;" d="M649.272,2723.02c0,0-40.846,40.769-108.56,69.657s-44.295,29.955-44.295,29.955
					s24.143,75.698,3.265,106.719C478.805,2960.371,663.49,2848,663.49,2848S691.449,2742.702,649.272,2723.02z"/>
			</g>
			<g>
				<path style="fill:#9BAB92;" d="M479.106,2832.58c0,0-31.045,14.241-46.168,49.761s15.822,14.179-25.99,95.884l100.847-49.835
					C507.794,2928.39,506.395,2828.993,479.106,2832.58z"/>
			</g>
			<g>
				<path style="fill:#9BAB92;" d="M1121.747,2630.719c0,0-138.154,174.134-227.334,220.403
					c-89.18,46.27-57.826-59.713-196.73-20.756l213.76-156.765C911.443,2673.602,1051.846,2659.213,1121.747,2630.719z"/>
			</g>
			<g>
				<path style="fill:#9BAB92;" d="M850.019,2895.204l-147.761,75.181l-20.681-3.41l-185.174-30.535l163.665-81.584
					C660.068,2854.856,768.841,2785.114,850.019,2895.204z"/>
			</g>
			<g>
				<path style="fill:#9BAB92;" d="M508.57,3022.344c0,0,97.023-18.448,137.816-34.267c51.588-20.004-174.545-45.132-174.545-45.132
					l-93.678,41.959c-2.686,1.203-1.972,4.866,1.018,5.202C402.998,2992.781,463.191,3001.261,508.57,3022.344z"/>
			</g>
			<g>
				<path style="fill:#9BAB92;" d="M1184.245,2353.738c0,0-200.602,454.665-931.761,675.745
					C252.484,3029.484,937.275,2843.965,1184.245,2353.738z"/>
			</g>
			<g>
				<path style="fill:#9BAB92;" d="M1166.703,2390.71c0,0-206.494,417.725-922.03,638.784
					C244.673,3029.494,867.274,2865.359,1166.703,2390.71z"/>
				<path style="fill:#728168;" d="M244.671,3032.128c-1.147,0-2.2-0.756-2.53-1.909c-0.394-1.378,0.385-2.817,1.754-3.24
					c76.445-23.617,149.997-50.427,220.22-80.241c39.721-17.262,82.987-37.538,128.189-61.039
					c111.923-58.188,213.666-124.477,302.404-197.023c110.87-90.643,201.633-191.364,269.767-299.369
					c0.747-1.186,2.292-1.577,3.515-0.893c1.222,0.686,1.694,2.208,1.073,3.464c-0.13,0.263-13.352,26.789-43.665,69.09
					c-27.933,38.979-76.558,99.794-149.585,168.16c-82.046,76.811-177.556,147.32-283.876,209.569
					c-70.6,41.336-146.108,79.075-225.883,112.939c-128.126,55.668-219.521,80.091-220.71,80.404
					C245.119,3032.1,244.894,3032.128,244.671,3032.128z"/>
			</g>
		</g>
		<g>
			<g>
				<path style="fill:#829676;" d="M695.476,2016.577c0,0-278.404-54.489-326.977-23.245
					c-48.573,31.244-117.425,179.377-117.425,179.377S564.341,2003.292,695.476,2016.577z"/>
			</g>
			<g>
				<path style="fill:#829676;" d="M720.233,2036.446c0,0-145.871,150.778-280.049,196.054l-216.641-49.071
					C223.543,2183.429,672.044,1925.078,720.233,2036.446z"/>
			</g>
			<g>
				<path style="fill:#829676;" d="M370.959,2264.024l-193.188,115.754c0,0-75.969-60.824-150.258-70.638
					c0,0,68.374-72.784,177.058-120.949C276.899,2156.139,370.959,2264.024,370.959,2264.024z"/>
			</g>
			<g>
				<path style="fill:#829676;" d="M155.904,2404.476l-57.122,28.369c0,0-88.289-48.726-171.02-43.244
					c0,0,49.225-67.023,94.308-68.201C148.738,2318.092,155.904,2404.476,155.904,2404.476z"/>
			</g>
			<g>
				<path style="fill:#829676;" d="M70.448,2461.418c0,0-64.27,28.844-124.019,91.735c-59.749,62.891-52.456,36.833-52.456,36.833
					s-82.694-55.925-127.857-45.149s158.407-147.674,158.407-147.674S62.104,2407.568,70.448,2461.418z"/>
			</g>
			<g>
				<path style="fill:#829676;" d="M-124.401,2605.067c0,0-28.599,28.446-77.095,31.168c-48.496,2.722-11.348-22.849-125.476-8.894
					l97.222-91.011C-229.75,2536.329-110.063,2576.583-124.401,2605.067z"/>
			</g>
			<g>
				<path style="fill:#829676;" d="M355.213,1980.024c0,0-261.207,83.44-349.841,163.065s51.019,86.581-46.995,223.502
					l267.91-172.993C226.287,2193.597,295.14,2045.464,355.213,1980.024z"/>
			</g>
			<g>
				<path style="fill:#829676;" d="M-64.204,2174.527l-145.066,132.508l-3.455,23.973l-30.935,214.657l158.637-147.428
					C-85.023,2398.238,39.178,2306.302-64.204,2174.527z"/>
			</g>
			<g>
				<path style="fill:#829676;" d="M-343.083,2498.878c0,0,57.865-99.052,91.943-137.557c43.096-48.695-9.387,208.706-9.387,208.706
					l-85.071,86.23c-2.439,2.473-6.607,0.263-5.918-3.141C-346.022,2625.995-334.217,2556.781-343.083,2498.878z"/>
			</g>
			<g>
				<path style="fill:#829676;" d="M713.067,2019.492c0,0-623.335,42.534-1158.63,757.015
					C-445.564,2776.506,29.735,2098.944,713.067,2019.492z"/>
			</g>
			<g>
				<path style="fill:#829676;" d="M661.929,2024.297c0,0-580.823,63.376-1110.368,760.758
					C-448.439,2785.055-21.79,2167.26,661.929,2024.297z"/>
				<path style="fill:#728168;" d="M-448.441,2788.245c-0.649,0-1.304-0.198-1.868-0.606c-1.404-1.018-1.738-2.969-0.753-4.396
					c0.815-1.18,63.85-91.749,178.12-210.361c70.201-74.178,143.523-142.17,219.398-203.385
					c114.246-92.173,234.517-169.289,357.472-229.206c109.429-53.326,200.781-82.876,258.147-98.275
					c62.243-16.708,99.143-20.849,99.509-20.889c1.692-0.182,3.229,0.99,3.495,2.67s-0.832,3.273-2.497,3.621
					c-155.593,32.534-310.667,92.683-460.913,178.773c-120.244,68.9-237.684,154.477-349.058,254.353
					c-44.991,40.347-85.362,79.818-120.797,116.591c-61.778,65.27-121.148,135.357-177.713,209.85
					C-446.526,2787.809-447.478,2788.245-448.441,2788.245z"/>
			</g>
		</g>
		<g>
			<g>
				<line style="fill:#414B3B;" x1="37.047" y1="775.86" x2="-1.035" y2="797.397"/>
				<path style="fill:#425736;" d="M-1.03,802.02c-1.612,0-3.177-0.844-4.027-2.347c-1.256-2.222-0.474-5.042,1.748-6.298
					l38.081-21.537c2.224-1.255,5.042-0.473,6.298,1.748c1.256,2.222,0.474,5.042-1.748,6.298L1.241,801.42
					C0.522,801.826-0.26,802.02-1.03,802.02z"/>
			</g>
			<g>
				<line style="fill:#414B3B;" x1="42.353" y1="803.016" x2="2.607" y2="791.987"/>
				<path style="fill:#425736;" d="M42.355,807.639c-0.409,0-0.825-0.055-1.238-0.169L1.371,796.44
					c-2.459-0.683-3.9-3.23-3.218-5.689c0.683-2.46,3.229-3.9,5.689-3.218l39.746,11.029c2.459,0.683,3.9,3.23,3.218,5.689
					C46.238,806.298,44.38,807.639,42.355,807.639z"/>
			</g>
			<g>
				<line style="fill:#414B3B;" x1="-231.188" y1="894.053" x2="-111.429" y2="809.569"/>
				<path style="fill:#425736;" d="M-231.184,898.675c-1.451,0-2.88-0.682-3.78-1.958c-1.472-2.085-0.974-4.969,1.112-6.44
					l119.759-84.484c2.085-1.472,4.969-0.974,6.44,1.112c1.472,2.085,0.974,4.969-1.112,6.44l-119.759,84.484
					C-229.333,898.401-230.263,898.675-231.184,898.675z"/>
			</g>
			<g>
				<line style="fill:#414B3B;" x1="-247.419" y1="883.128" x2="-147.324" y2="746.1"/>
				<path style="fill:#425736;" d="M-247.422,887.75c-0.946,0-1.9-0.29-2.722-0.89c-2.062-1.505-2.512-4.397-1.006-6.458
					l100.095-137.028c1.505-2.062,4.397-2.51,6.458-1.006c2.062,1.505,2.512,4.397,1.006,6.458l-100.095,137.028
					C-244.591,887.093-245.997,887.75-247.422,887.75z"/>
			</g>
			<g>
				<line style="fill:#414B3B;" x1="-248.303" y1="878.602" x2="-255.586" y2="889.423"/>
				<path style="fill:#728168;" d="M-255.593,896.356c-1.332,0-2.677-0.383-3.865-1.183c-3.176-2.138-4.018-6.446-1.88-9.622
					l7.284-10.821c2.138-3.176,6.447-4.017,9.622-1.88c3.176,2.138,4.018,6.446,1.88,9.622l-7.284,10.821
					C-251.174,895.283-253.363,896.356-255.593,896.356z"/>
			</g>
			<g>
				<g>
					<line style="fill:#414B3B;" x1="-335.704" y1="1008.451" x2="-438.814" y2="1009.802"/>
					
						<rect x="-438.819" y="1005.865" transform="matrix(0.9999 -0.013 0.013 0.9999 -13.1785 -4.9591)" style="fill:#425736;" width="103.119" height="6.522"/>
				</g>
				<g>
					<line style="fill:#414B3B;" x1="-346.992" y1="902.583" x2="-417.953" y2="996.328"/>
					
						<rect x="-441.259" y="946.195" transform="matrix(0.6036 -0.7973 0.7973 0.6036 -908.6409 71.448)" style="fill:#425736;" width="117.574" height="6.522"/>
				</g>
				<g>
					<line style="fill:#414B3B;" x1="-397.091" y1="982.854" x2="-512.22" y2="1042.94"/>
					<path style="fill:#425736;" d="M-512.214,1049.874c-2.5,0-4.915-1.356-6.152-3.727c-1.771-3.394-0.456-7.582,2.938-9.354
						l115.128-60.085c3.395-1.772,7.583-0.456,9.354,2.938c1.771,3.394,0.456,7.582-2.938,9.354l-115.128,60.085
						C-510.037,1049.621-511.133,1049.874-512.214,1049.874z"/>
				</g>
				<g>
					<line style="fill:#414B3B;" x1="-710.586" y1="1109.891" x2="-516.746" y2="1043.824"/>
					<path style="fill:#425736;" d="M-710.586,1116.825c-2.885,0-5.579-1.815-6.562-4.698c-1.235-3.624,0.702-7.563,4.326-8.798
						l193.84-66.066c3.625-1.236,7.563,0.702,8.798,4.326c1.235,3.624-0.702,7.563-4.326,8.798l-193.84,66.066
						C-709.09,1116.705-709.845,1116.825-710.586,1116.825z"/>
				</g>
				<g>
					<line style="fill:#414B3B;" x1="315.272" y1="444.267" x2="201.028" y2="508.879"/>
					<path style="fill:#425736;" d="M201.032,513.501c-1.612,0-3.177-0.844-4.027-2.347c-1.256-2.222-0.474-5.042,1.748-6.298
						l114.244-64.611c2.223-1.255,5.042-0.474,6.298,1.748c1.256,2.222,0.474,5.042-1.748,6.298l-114.244,64.611
						C202.584,513.308,201.803,513.501,201.032,513.501z"/>
				</g>
				<g>
					<line style="fill:#414B3B;" x1="124.656" y1="598.982" x2="181.051" y2="526.878"/>
					<path style="fill:#425736;" d="M124.653,603.604c-0.996,0-1.999-0.32-2.844-0.981c-2.011-1.573-2.366-4.478-0.793-6.488
						l56.395-72.104c1.573-2.012,4.478-2.366,6.488-0.793c2.011,1.573,2.366,4.478,0.793,6.488l-56.395,72.104
						C127.385,602.995,126.026,603.604,124.653,603.604z"/>
				</g>
				<g>
					<line style="fill:#414B3B;" x1="121.015" y1="604.392" x2="213.409" y2="572.243"/>
					<path style="fill:#425736;" d="M121.015,609.016c-1.913,0-3.701-1.196-4.365-3.104c-0.839-2.411,0.436-5.045,2.846-5.884
						l92.394-32.149c2.413-0.839,5.045,0.437,5.884,2.846c0.839,2.411-0.436,5.045-2.846,5.884l-92.394,32.149
						C122.031,608.933,121.518,609.016,121.015,609.016z"/>
				</g>
				<g>
					<line style="fill:#414B3B;" x1="119.559" y1="524.797" x2="97.396" y2="627.802"/>
					<path style="fill:#425736;" d="M97.4,632.425c-0.322,0-0.649-0.034-0.977-0.104c-2.496-0.537-4.083-2.995-3.546-5.491
						l22.163-103.006c0.538-2.495,2.998-4.08,5.491-3.546c2.496,0.537,4.083,2.995,3.546,5.491l-22.163,103.006
						C101.448,630.942,99.531,632.425,97.4,632.425z"/>
				</g>
				<g>
					<line style="fill:#414B3B;" x1="124.656" y1="598.982" x2="59.21" y2="672.854"/>
					<path style="fill:#425736;" d="M59.208,677.476c-1.09,0-2.184-0.383-3.063-1.162c-1.911-1.693-2.087-4.614-0.395-6.524
						l65.446-73.872c1.694-1.91,4.614-2.086,6.524-0.395c1.911,1.693,2.087,4.614,0.395,6.524l-65.446,73.872
						C61.756,676.95,60.485,677.476,59.208,677.476z"/>
				</g>
				<g>
					<line style="fill:#414B3B;" x1="-42.445" y1="753.801" x2="59.21" y2="672.854"/>
					<path style="fill:#425736;" d="M-42.442,758.423c-1.359,0-2.706-0.597-3.619-1.743c-1.59-1.997-1.26-4.904,0.737-6.495
						l101.655-80.947c1.996-1.59,4.904-1.26,6.495,0.737c1.59,1.997,1.26,4.904-0.737,6.495l-101.655,80.947
						C-40.417,758.094-41.433,758.423-42.442,758.423z"/>
				</g>
				<g>
					<line style="fill:#414B3B;" x1="-102.376" y1="807.8" x2="-42.445" y2="753.801"/>
					<path style="fill:#425736;" d="M-102.375,812.422c-1.264,0-2.522-0.515-3.435-1.528c-1.708-1.896-1.557-4.819,0.34-6.527
						l59.932-54c1.896-1.708,4.819-1.556,6.527,0.34c1.708,1.896,1.557,4.819-0.34,6.527l-59.932,54
						C-100.166,812.03-101.272,812.422-102.375,812.422z"/>
				</g>
				<g>
					<line style="fill:#414B3B;" x1="89.799" y1="709.167" x2="6.249" y2="786.576"/>
					<path style="fill:#425736;" d="M6.25,791.198c-1.242,0-2.48-0.498-3.391-1.48c-1.735-1.873-1.624-4.797,0.249-6.531
						l83.551-77.409c1.872-1.735,4.797-1.624,6.531,0.249c1.735,1.873,1.624,4.797-0.249,6.531L9.39,789.966
						C8.5,790.791,7.374,791.198,6.25,791.198z"/>
				</g>
				<g>
					<line style="fill:#414B3B;" x1="203.73" y1="715.099" x2="15.301" y2="784.808"/>
					<path style="fill:#425736;" d="M15.301,789.431c-1.879,0-3.645-1.154-4.335-3.02c-0.886-2.394,0.337-5.053,2.731-5.938
						l188.429-69.708c2.395-0.886,5.053,0.337,5.938,2.731c0.886,2.394-0.337,5.053-2.731,5.938L16.904,789.142
						C16.375,789.338,15.834,789.431,15.301,789.431z"/>
				</g>
				<g>
					<line style="fill:#414B3B;" x1="189.059" y1="760.255" x2="98.642" y2="754.427"/>
					<path style="fill:#425736;" d="M189.063,764.877c-0.1,0-0.201-0.003-0.302-0.01l-90.417-5.828
						c-2.547-0.165-4.479-2.362-4.315-4.91c0.164-2.547,2.372-4.475,4.91-4.315l90.417,5.828c2.547,0.165,4.479,2.362,4.315,4.91
						C193.514,762.999,191.48,764.877,189.063,764.877z"/>
				</g>
				<g>
					<line style="fill:#414B3B;" x1="-111.429" y1="809.569" x2="8.017" y2="795.628"/>
					<path style="fill:#425736;" d="M-111.435,814.191c-2.313,0-4.31-1.733-4.585-4.086c-0.296-2.535,1.52-4.831,4.055-5.126
						l119.446-13.94c2.535-0.296,4.83,1.52,5.126,4.055c0.296,2.535-1.52,4.831-4.055,5.126l-119.446,13.94
						C-111.075,814.181-111.256,814.191-111.435,814.191z"/>
				</g>
				<g>
					<line style="fill:#414B3B;" x1="-111.742" y1="880.113" x2="-231.188" y2="894.053"/>
					<path style="fill:#425736;" d="M-231.193,898.675c-2.313,0-4.31-1.733-4.585-4.086c-0.296-2.535,1.52-4.831,4.055-5.126
						l119.446-13.94c2.528-0.294,4.83,1.52,5.126,4.055c0.296,2.535-1.52,4.831-4.055,5.126l-119.446,13.94
						C-230.833,898.665-231.015,898.675-231.193,898.675z"/>
				</g>
				<g>
					<line style="fill:#414B3B;" x1="-72.93" y1="693.974" x2="-143.682" y2="740.69"/>
					<path style="fill:#425736;" d="M-143.678,745.312c-1.501,0-2.973-0.729-3.861-2.076c-1.406-2.13-0.82-4.997,1.311-6.403
						l70.752-46.716c2.13-1.407,4.997-0.82,6.403,1.311c1.406,2.13,0.82,4.997-1.311,6.403l-70.752,46.716
						C-141.919,745.064-142.804,745.312-143.678,745.312z"/>
				</g>
				<g>
					<line style="fill:#414B3B;" x1="-32.453" y1="540.401" x2="-79.691" y2="587.222"/>
					<path style="fill:#425736;" d="M-79.691,591.843c-1.189,0-2.379-0.456-3.283-1.368c-1.797-1.813-1.784-4.739,0.029-6.536
						l47.238-46.82c1.813-1.796,4.739-1.784,6.536,0.029c1.797,1.813,1.784,4.739-0.029,6.536l-47.238,46.82
						C-77.338,591.397-78.515,591.843-79.691,591.843z"/>
				</g>
				<g>
					<line style="fill:#414B3B;" x1="-71.99" y1="482.343" x2="-86.974" y2="598.042"/>
					<path style="fill:#425736;" d="M-86.969,602.665c-0.198,0-0.398-0.013-0.6-0.039c-2.531-0.328-4.317-2.646-3.99-5.177
						l14.984-115.7c0.328-2.531,2.643-4.314,5.177-3.99c2.531,0.328,4.317,2.646,3.99,5.177l-14.984,115.7
						C-82.693,600.966-84.681,602.665-86.969,602.665z"/>
				</g>
				<g>
					<line style="fill:#414B3B;" x1="-76.049" y1="581.811" x2="-156.376" y2="747.869"/>
					<path style="fill:#425736;" d="M-156.379,752.492c-0.675,0-1.361-0.149-2.009-0.462c-2.298-1.112-3.259-3.875-2.148-6.173
						l80.327-166.057c1.111-2.298,3.875-3.258,6.173-2.148c2.298,1.112,3.259,3.875,2.148,6.173l-80.327,166.057
						C-153.013,751.531-154.662,752.492-156.379,752.492z"/>
				</g>
				<g>
					<line style="fill:#414B3B;" x1="-144.72" y1="567.036" x2="-123.496" y2="675.661"/>
					<path style="fill:#425736;" d="M-123.501,680.283c-2.167,0-4.1-1.53-4.531-3.736l-21.224-108.625
						c-0.489-2.505,1.145-4.933,3.65-5.422c2.51-0.487,4.933,1.145,5.422,3.65l21.224,108.625c0.489,2.505-1.145,4.933-3.65,5.422
						C-122.909,680.255-123.208,680.283-123.501,680.283z"/>
				</g>
				<g>
					<line style="fill:#414B3B;" x1="-156.376" y1="747.869" x2="-249.187" y2="874.076"/>
					<path style="fill:#425736;" d="M-249.191,878.698c-0.951,0-1.91-0.292-2.734-0.899c-2.056-1.512-2.497-4.405-0.985-6.461
						l92.812-126.207c1.512-2.057,4.404-2.498,6.461-0.985c2.056,1.512,2.497,4.405,0.985,6.461l-92.812,126.207
						C-246.37,878.045-247.771,878.698-249.191,878.698z"/>
				</g>
				<g>
					<line style="fill:#414B3B;" x1="-228.688" y1="738.503" x2="-249.187" y2="874.076"/>
					<path style="fill:#425736;" d="M-249.176,883.32c-0.46,0-0.925-0.034-1.393-0.105c-5.048-0.763-8.521-5.474-7.758-10.521
						l20.5-135.572c0.763-5.047,5.472-8.524,10.521-7.758c5.048,0.763,8.521,5.474,7.758,10.521l-20.5,135.572
						C-240.74,880.037-244.682,883.32-249.176,883.32z"/>
				</g>
				<g>
					<line style="fill:#414B3B;" x1="-97.85" y1="806.916" x2="-245.65" y2="892.18"/>
					<path style="fill:#425736;" d="M-245.644,899.114c-2.397,0-4.728-1.244-6.011-3.469c-1.914-3.316-0.776-7.556,2.541-9.469
						l147.799-85.264c3.318-1.912,7.556-0.775,9.469,2.541c1.914,3.316,0.776,7.556-2.541,9.469l-147.799,85.264
						C-243.277,898.814-244.468,899.114-245.644,899.114z"/>
				</g>
				<g>
					<line style="fill:#414B3B;" x1="-181.61" y1="931.355" x2="-321.813" y2="935.254"/>
					<path style="fill:#425736;" d="M-321.815,939.876c-2.493,0-4.548-1.985-4.618-4.493c-0.071-2.551,1.94-4.677,4.492-4.749
						l140.203-3.9c2.53-0.062,4.677,1.94,4.749,4.492c0.071,2.551-1.94,4.677-4.492,4.749l-140.203,3.9
						C-321.728,939.875-321.772,939.876-321.815,939.876z"/>
				</g>
				<g>
					<line style="fill:#414B3B;" x1="-237.482" y1="885.885" x2="-397.091" y2="982.854"/>
					<path style="fill:#425736;" d="M-397.085,989.788c-2.341,0-4.626-1.187-5.931-3.334c-1.988-3.272-0.947-7.537,2.325-9.524
						l159.609-96.969c3.27-1.989,7.536-0.947,9.524,2.325c1.988,3.272,0.947,7.537-2.325,9.524l-159.609,96.969
						C-394.616,989.462-395.858,989.788-397.085,989.788z"/>
				</g>
				<g>
					<line style="fill:#414B3B;" x1="-253.713" y1="874.96" x2="-275.564" y2="907.422"/>
					<path style="fill:#425736;" d="M-275.57,914.356c-1.332,0-2.677-0.383-3.865-1.183c-3.176-2.138-4.018-6.446-1.88-9.622
						l21.85-32.462c2.138-3.176,6.447-4.018,9.622-1.88c3.176,2.138,4.018,6.446,1.88,9.622l-21.85,32.462
						C-271.151,913.282-273.34,914.356-275.57,914.356z"/>
				</g>
				<g>
					<line style="fill:#414B3B;" x1="-226.661" y1="893.169" x2="-288.257" y2="914.602"/>
					<path style="fill:#425736;" d="M-288.258,921.536c-2.869,0-5.551-1.794-6.547-4.656c-1.258-3.616,0.653-7.568,4.269-8.826
						l61.596-21.432c3.615-1.259,7.568,0.653,8.826,4.269c1.258,3.616-0.653,7.568-4.269,8.826l-61.596,21.432
						C-286.733,921.412-287.502,921.536-288.258,921.536z"/>
				</g>
				<g>
					<line style="fill:#414B3B;" x1="281.146" y1="389.85" x2="193.745" y2="519.699"/>
					<path style="fill:#425736;" d="M193.74,524.321c-0.888,0-1.785-0.255-2.576-0.788c-2.118-1.425-2.679-4.297-1.253-6.415
						l87.401-129.849c1.425-2.119,4.298-2.68,6.415-1.253c2.118,1.425,2.679,4.297,1.253,6.415L197.579,522.28
						C196.687,523.606,195.227,524.321,193.74,524.321z"/>
				</g>
			</g>
			<g>
				<g>
					<path style="fill:#414B3B;" d="M346.23,193.88c0,0-139.736,102.484-78.767,222.138
						C267.463,416.018,403.558,318.944,346.23,193.88z"/>
				</g>
				<g>
					<path style="fill:#414B3B;" d="M159.047,390.213c0,0-92.498,55.664-42.245,144.52
						C116.802,534.733,214.815,459.197,159.047,390.213z"/>
				</g>
				<g>
					<path style="fill:#414B3B;" d="M310.746,445.152c0,0,83.655-100.924,164.915-69.813
						C475.661,375.339,426.446,460.136,310.746,445.152z"/>
				</g>
				<g>
					<path style="fill:#414B3B;" d="M230.628,564.18c0,0,45.574-79.387,177.504-53.477c0,0-58.163,63.051-99.782,66.484
						S230.628,564.18,230.628,564.18z"/>
				</g>
				<g>
					<path style="fill:#414B3B;" d="M190.152,717.752c0,0,49.215-84.797,181.251-82.402c0,0-13.111,101.237-188.534,93.223
						L190.152,717.752z"/>
				</g>
				<g>
					<path style="fill:#414B3B;" d="M90.168,422.466c0,0-121.319,28.403-138.072,135.051
						C-47.904,557.517,93.392,511.114,90.168,422.466z"/>
				</g>
				<g>
					<path style="fill:#414B3B;" d="M20.041,328.095c0,0-61.596,21.433-81.678,62.947S-78.389,497.69-78.389,497.69
						S34.086,424.026,20.041,328.095z"/>
				</g>
				<g>
					<path style="fill:#414B3B;" d="M-142.067,580.614c0,0,52.753-66.693-42.761-146.706
						C-184.828,433.907-235.812,509.653-142.067,580.614z"/>
				</g>
				<g>
					<path style="fill:#414B3B;" d="M-90.149,702.037c0,0,69.297-126.312,161.482-111.432
						C71.333,590.605-26.994,736.685-90.149,702.037z"/>
				</g>
				<g>
					<path style="fill:#414B3B;" d="M-224.266,761.134c0,0,56.499-95.618-22.784-164.706
						C-247.05,596.427-305.422,706.508-224.266,761.134z"/>
				</g>
				<g>
					<path style="fill:#414B3B;" d="M-349.749,912.52c0,0,87.192-82.82,51.402-169.803
						C-298.347,742.716-409.159,848.946-349.749,912.52z"/>
				</g>
				<g>
					<path style="fill:#414B3B;" d="M-364.629,1004.705c0,0,114.244-64.611,169.908,27.887
						C-194.721,1032.592-287.115,1064.741-364.629,1004.705z"/>
				</g>
				<g>
					<path style="fill:#414B3B;" d="M-205.124,931.25c0,0,100.521-23.848,158.577,32.034c3.298,3.175,6.459,6.607,9.457,10.315
						C18.678,1042.583-205.124,931.25-205.124,931.25z"/>
				</g>
				<g>
					<path style="fill:#414B3B;" d="M-139.782,880.893c0,0,85.215-44.843,162.833-8.321
						C23.051,872.571-44.164,937.391-139.782,880.893z"/>
				</g>
				<g>
					<path style="fill:#414B3B;" d="M21.595,792.975c0,0,141.192-22.888,178.855,49.633
						C200.451,842.608,183.907,902.227,21.595,792.975z"/>
				</g>
				<g>
					<path style="fill:#414B3B;" d="M74.348,726.282c0,0,175.736-62.529,156.072-115.073
						C230.42,611.209,145.622,561.994,74.348,726.282z"/>
				</g>
				<g>
					<path style="fill:#414B3B;" d="M164.66,755.625c0,0,133.908-12.067,160.856,29.656
						C325.516,785.281,303.561,841.257,164.66,755.625z"/>
				</g>
			</g>
		</g>
		<g>
			<g>
				<line style="fill:#414B3B;" x1="129.111" y1="2328.468" x2="106.939" y2="2372.811"/>
				<path style="fill:#425736;" d="M106.936,2378.05c-0.787,0-1.586-0.178-2.338-0.554c-2.587-1.294-3.636-4.439-2.342-7.026
					l22.172-44.344c1.293-2.588,4.439-3.638,7.027-2.343c2.587,1.294,3.636,4.439,2.342,7.026l-22.172,44.344
					C110.707,2376.989,108.856,2378.05,106.936,2378.05z"/>
			</g>
			<g>
				<line style="fill:#414B3B;" x1="151.283" y1="2350.639" x2="106.939" y2="2365.421"/>
				<path style="fill:#425736;" d="M106.938,2370.66c-2.193,0-4.236-1.389-4.968-3.583c-0.915-2.744,0.568-5.71,3.313-6.625
					l44.344-14.781c2.742-0.909,5.71,0.569,6.625,3.313c0.915,2.744-0.568,5.71-3.313,6.625l-44.344,14.781
					C108.046,2370.572,107.488,2370.66,106.938,2370.66z"/>
			</g>
			<g>
				<line style="fill:#414B3B;" x1="-48.264" y1="2609.313" x2="10.861" y2="2454.109"/>
				<path style="fill:#425736;" d="M-48.266,2614.552c-0.62,0-1.25-0.111-1.864-0.345c-2.703-1.03-4.06-4.056-3.03-6.759
					l59.125-155.204c1.029-2.704,4.055-4.058,6.759-3.03c2.703,1.03,4.06,4.056,3.03,6.759l-59.125,155.204
					C-44.167,2613.267-46.155,2614.552-48.266,2614.552z"/>
			</g>
			<g>
				<line style="fill:#414B3B;" x1="-70.436" y1="2609.313" x2="-63.046" y2="2417.155"/>
				<path style="fill:#425736;" d="M-70.433,2614.55c-0.068,0-0.136-0.001-0.205-0.004c-2.891-0.111-5.144-2.544-5.032-5.435
					l7.391-192.157c0.111-2.891,2.539-5.167,5.435-5.032c2.891,0.111,5.144,2.544,5.032,5.435l-7.391,192.157
					C-65.312,2612.336-67.633,2614.55-70.433,2614.55z"/>
			</g>
			<g>
				<line style="fill:#414B3B;" x1="-74.132" y1="2605.617" x2="-74.132" y2="2620.398"/>
				<path style="fill:#728168;" d="M-74.132,2628.255c-4.339,0-7.856-3.518-7.856-7.856v-14.781c0-4.339,3.518-7.856,7.856-7.856
					s7.856,3.518,7.856,7.856v14.781C-66.275,2624.737-69.793,2628.255-74.132,2628.255z"/>
			</g>
			<g>
				<g>
					<line style="fill:#414B3B;" x1="-74.132" y1="2782.993" x2="-170.21" y2="2849.509"/>
					
						<rect x="-180.599" y="2812.556" transform="matrix(0.8222 -0.5693 0.5693 0.8222 -1624.8807 431.2857)" style="fill:#425736;" width="116.856" height="7.39"/>
				</g>
				<g>
					<line style="fill:#414B3B;" x1="-151.734" y1="2690.61" x2="-159.124" y2="2823.642"/>
					
						<rect x="-222.048" y="2753.43" transform="matrix(0.0555 -0.9985 0.9985 0.0555 -2899.679 2448.9172)" style="fill:#425736;" width="133.237" height="7.39"/>
				</g>
				<g>
					<line style="fill:#414B3B;" x1="-148.038" y1="2797.774" x2="-218.25" y2="2927.111"/>
					<path style="fill:#425736;" d="M-218.256,2934.969c-1.266,0-2.55-0.307-3.741-0.953c-3.813-2.07-5.227-6.839-3.156-10.652
						l70.211-129.337c2.069-3.813,6.84-5.227,10.652-3.156c3.813,2.07,5.227,6.839,3.156,10.652l-70.211,129.337
						C-212.769,2933.481-215.469,2934.969-218.256,2934.969z"/>
				</g>
				<g>
					<line style="fill:#414B3B;" x1="-362.367" y1="3115.573" x2="-221.945" y2="2930.806"/>
					<path style="fill:#425736;" d="M-362.374,3123.429c-1.657,0-3.327-0.521-4.748-1.602c-3.454-2.625-4.126-7.554-1.501-11.009
						l140.423-184.766c2.625-3.454,7.555-4.126,11.009-1.501s4.126,7.554,1.501,11.009l-140.423,184.766
						C-357.658,3122.359-360.002,3123.429-362.374,3123.429z"/>
				</g>
				<g>
					<line style="fill:#414B3B;" x1="180.846" y1="1840.684" x2="114.33" y2="1973.716"/>
					<path style="fill:#425736;" d="M114.326,1978.954c-0.788,0-1.586-0.178-2.338-0.554c-2.587-1.294-3.636-4.439-2.342-7.026
						l66.516-133.032c1.294-2.589,4.441-3.635,7.027-2.343c2.587,1.294,3.636,4.439,2.342,7.026l-66.516,133.032
						C118.097,1977.894,116.247,1978.954,114.326,1978.954z"/>
				</g>
				<g>
					<line style="fill:#414B3B;" x1="99.549" y1="2106.748" x2="106.939" y2="2003.278"/>
					<path style="fill:#425736;" d="M99.554,2111.985c-0.125,0-0.251-0.004-0.378-0.013c-2.885-0.206-5.057-2.713-4.851-5.598
						l7.391-103.47c0.206-2.886,2.714-5.048,5.597-4.852c2.885,0.206,5.057,2.713,4.851,5.598l-7.391,103.47
						C104.576,2109.879,102.277,2111.985,99.554,2111.985z"/>
				</g>
				<g>
					<line style="fill:#414B3B;" x1="99.549" y1="2114.138" x2="166.065" y2="2025.45"/>
					<path style="fill:#425736;" d="M99.545,2119.376c-1.094,0-2.196-0.341-3.139-1.047c-2.314-1.736-2.783-5.019-1.047-7.333
						l66.516-88.688c1.735-2.315,5.018-2.782,7.333-1.048c2.314,1.736,2.783,5.019,1.047,7.333l-66.516,88.688
						C102.71,2118.653,101.137,2119.376,99.545,2119.376z"/>
				</g>
				<g>
					<line style="fill:#414B3B;" x1="47.814" y1="2040.232" x2="92.158" y2="2151.092"/>
					<path style="fill:#425736;" d="M92.16,2156.331c-2.079,0-4.045-1.246-4.864-3.294l-44.344-110.86
						c-1.074-2.686,0.232-5.734,2.917-6.809c2.688-1.072,5.734,0.232,6.808,2.918l44.344,110.86
						c1.074,2.686-0.232,5.734-2.917,6.809C93.465,2156.21,92.807,2156.331,92.16,2156.331z"/>
				</g>
				<g>
					<line style="fill:#414B3B;" x1="99.549" y1="2106.748" x2="84.767" y2="2217.607"/>
					<path style="fill:#425736;" d="M84.774,2222.846c-0.23,0-0.463-0.016-0.699-0.047c-2.867-0.382-4.881-3.017-4.499-5.884
						l14.781-110.859c0.382-2.866,3.008-4.879,5.884-4.499c2.867,0.382,4.881,3.017,4.499,5.884L89.959,2218.3
						C89.608,2220.932,87.359,2222.846,84.774,2222.846z"/>
				</g>
				<g>
					<line style="fill:#414B3B;" x1="40.424" y1="2358.03" x2="84.767" y2="2217.607"/>
					<path style="fill:#425736;" d="M40.425,2363.27c-0.522,0-1.054-0.079-1.579-0.245c-2.758-0.871-4.288-3.813-3.417-6.571
						l44.344-140.423c0.871-2.758,3.812-4.288,6.571-3.417c2.758,0.871,4.288,3.813,3.417,6.571l-44.344,140.423
						C44.712,2361.841,42.649,2363.27,40.425,2363.27z"/>
				</g>
				<g>
					<line style="fill:#414B3B;" x1="18.252" y1="2446.718" x2="40.424" y2="2358.03"/>
					<path style="fill:#425736;" d="M18.255,2451.956c-0.42,0-0.848-0.051-1.274-0.157c-2.806-0.701-4.512-3.545-3.811-6.352
						l22.172-88.688c0.701-2.806,3.543-4.51,6.352-3.811c2.806,0.701,4.512,3.545,3.811,6.352l-22.172,88.688
						C22.738,2450.368,20.602,2451.956,18.255,2451.956z"/>
				</g>
				<g>
					<line style="fill:#414B3B;" x1="136.502" y1="2232.389" x2="106.939" y2="2358.03"/>
					<path style="fill:#425736;" d="M106.944,2363.269c-0.397,0-0.8-0.045-1.204-0.14c-2.815-0.663-4.561-3.482-3.898-6.298
						l29.563-125.642c0.662-2.815,3.48-4.562,6.298-3.899c2.815,0.663,4.561,3.482,3.898,6.298l-29.563,125.642
						C111.47,2361.642,109.319,2363.269,106.944,2363.269z"/>
				</g>
				<g>
					<line style="fill:#414B3B;" x1="247.362" y1="2165.873" x2="114.33" y2="2350.639"/>
					<path style="fill:#425736;" d="M114.326,2355.878c-1.06,0-2.13-0.321-3.056-0.988c-2.348-1.689-2.88-4.963-1.19-7.311
						l133.032-184.767c1.69-2.347,4.964-2.88,7.311-1.189c2.348,1.689,2.88,4.963,1.19,7.311L118.581,2353.7
						C117.557,2355.121,115.953,2355.878,114.326,2355.878z"/>
				</g>
				<g>
					<line style="fill:#414B3B;" x1="262.143" y1="2217.607" x2="173.455" y2="2269.342"/>
					<path style="fill:#425736;" d="M173.46,2274.58c-1.802,0-3.556-0.931-4.529-2.6c-1.458-2.498-0.614-5.705,1.885-7.163
						l88.688-51.734c2.499-1.456,5.706-0.613,7.163,1.886c1.458,2.498,0.614,5.705-1.885,7.163l-88.688,51.734
						C175.265,2274.35,174.356,2274.58,173.46,2274.58z"/>
				</g>
				<g>
					<line style="fill:#414B3B;" x1="10.861" y1="2454.109" x2="114.33" y2="2365.421"/>
					<path style="fill:#425736;" d="M10.863,2459.346c-1.476,0-2.943-0.62-3.979-1.829c-1.882-2.196-1.628-5.502,0.568-7.385
						l103.469-88.688c2.197-1.883,5.503-1.628,7.385,0.568c1.882,2.196,1.628,5.502-0.568,7.385L14.27,2458.085
						C13.282,2458.932,12.069,2459.346,10.863,2459.346z"/>
				</g>
				<g>
					<line style="fill:#414B3B;" x1="55.205" y1="2520.625" x2="-48.264" y2="2609.313"/>
					<path style="fill:#425736;" d="M-48.262,2614.55c-1.476,0-2.943-0.62-3.979-1.829c-1.882-2.196-1.628-5.502,0.568-7.385
						l103.469-88.688c2.197-1.883,5.503-1.628,7.385,0.568c1.882,2.196,1.628,5.502-0.568,7.385l-103.469,88.688
						C-45.844,2614.136-47.056,2614.55-48.262,2614.55z"/>
				</g>
				<g>
					<line style="fill:#414B3B;" x1="-26.092" y1="2321.077" x2="-63.046" y2="2409.765"/>
					<path style="fill:#425736;" d="M-63.048,2415.004c-0.672,0-1.354-0.13-2.013-0.404c-2.67-1.113-3.933-4.18-2.82-6.85
						l36.954-88.688c1.113-2.671,4.18-3.934,6.849-2.82c2.67,1.113,3.933,4.18,2.82,6.85l-36.954,88.688
						C-59.049,2413.791-60.997,2415.004-63.048,2415.004z"/>
				</g>
				<g>
					<line style="fill:#414B3B;" x1="-85.218" y1="2151.092" x2="-99.999" y2="2224.998"/>
					<path style="fill:#425736;" d="M-99.994,2230.236c-0.34,0-0.686-0.033-1.033-0.103c-2.836-0.567-4.676-3.326-4.108-6.163
						l14.781-73.906c0.567-2.836,3.318-4.68,6.163-4.108c2.836,0.567,4.676,3.326,4.108,6.163l-14.781,73.906
						C-95.361,2228.515-97.548,2230.236-99.994,2230.236z"/>
				</g>
				<g>
					<line style="fill:#414B3B;" x1="-159.124" y1="2121.529" x2="-99.999" y2="2239.78"/>
					<path style="fill:#425736;" d="M-99.995,2245.018c-1.921,0-3.771-1.061-4.688-2.896l-59.125-118.25
						c-1.293-2.587-0.245-5.732,2.342-7.026c2.586-1.294,5.732-0.245,7.027,2.343l59.125,118.25
						c1.293,2.587,0.245,5.732-2.342,7.026C-98.409,2244.84-99.208,2245.018-99.995,2245.018z"/>
				</g>
				<g>
					<line style="fill:#414B3B;" x1="-99.999" y1="2217.607" x2="-70.436" y2="2424.546"/>
					<path style="fill:#425736;" d="M-70.443,2429.784c-2.565,0-4.805-1.885-5.179-4.498l-29.563-206.938
						c-0.409-2.863,1.581-5.516,4.444-5.925c2.86-0.411,5.516,1.58,5.926,4.444l29.563,206.938c0.409,2.863-1.581,5.516-4.444,5.925
						C-69.947,2429.767-70.197,2429.784-70.443,2429.784z"/>
				</g>
				<g>
					<line style="fill:#414B3B;" x1="-173.906" y1="2247.17" x2="-85.218" y2="2335.858"/>
					<path style="fill:#425736;" d="M-85.218,2341.096c-1.34,0-2.681-0.511-3.704-1.534l-88.688-88.688
						c-2.045-2.045-2.045-5.361,0-7.406c2.046-2.045,5.361-2.047,7.407,0l88.688,88.688c2.045,2.045,2.045,5.361,0,7.406
						C-82.537,2340.584-83.877,2341.096-85.218,2341.096z"/>
				</g>
				<g>
					<line style="fill:#414B3B;" x1="-70.436" y1="2424.546" x2="-77.827" y2="2601.922"/>
					<path style="fill:#425736;" d="M-77.823,2607.159c-0.074,0-0.147-0.001-0.222-0.004c-2.89-0.121-5.135-2.562-5.015-5.451
						l7.391-177.376c0.121-2.891,2.555-5.136,5.451-5.016c2.89,0.121,5.135,2.562,5.015,5.451l-7.391,177.376
						C-72.711,2604.956-75.031,2607.159-77.823,2607.159z"/>
				</g>
				<g>
					<line style="fill:#414B3B;" x1="-144.343" y1="2461.499" x2="-77.827" y2="2601.922"/>
					<path style="fill:#425736;" d="M-77.82,2612.399c-3.922,0-7.684-2.213-9.474-5.993l-66.516-140.423
						c-2.477-5.229-0.246-11.475,4.982-13.951c5.23-2.476,11.475-0.246,13.951,4.982l66.516,140.423
						c2.477,5.229,0.246,11.475-4.982,13.951C-74.791,2612.074-76.317,2612.399-77.82,2612.399z"/>
				</g>
				<g>
					<line style="fill:#414B3B;" x1="21.947" y1="2443.023" x2="-63.046" y2="2616.703"/>
					<path style="fill:#425736;" d="M-63.052,2624.562c-1.159,0-2.336-0.258-3.447-0.802c-3.897-1.907-5.511-6.612-3.604-10.51
						l84.993-173.681c1.908-3.897,6.614-5.511,10.51-3.604c3.897,1.907,5.511,6.612,3.604,10.51l-84.993,173.681
						C-57.353,2622.942-60.146,2624.562-63.052,2624.562z"/>
				</g>
				<g>
					<line style="fill:#414B3B;" x1="21.947" y1="2613.008" x2="-107.39" y2="2705.391"/>
					<path style="fill:#425736;" d="M-107.385,2710.629c-1.634,0-3.244-0.763-4.266-2.194c-1.682-2.354-1.136-5.625,1.217-7.306
						l129.336-92.383c2.354-1.681,5.625-1.137,7.306,1.218c1.682,2.354,1.136,5.625-1.217,7.306l-129.336,92.383
						C-105.268,2710.312-106.332,2710.629-107.385,2710.629z"/>
				</g>
				<g>
					<line style="fill:#414B3B;" x1="-59.35" y1="2605.617" x2="-148.038" y2="2797.774"/>
					<path style="fill:#425736;" d="M-148.043,2805.633c-1.102,0-2.221-0.233-3.287-0.726c-3.94-1.818-5.659-6.485-3.841-10.425
						l88.688-192.157c1.818-3.94,6.488-5.659,10.425-3.841c3.94,1.818,5.659,6.485,3.841,10.425l-88.688,192.157
						C-142.231,2803.94-145.073,2805.633-148.043,2805.633z"/>
				</g>
				<g>
					<line style="fill:#414B3B;" x1="-81.522" y1="2605.617" x2="-81.522" y2="2649.961"/>
					<path style="fill:#425736;" d="M-81.522,2657.817c-4.339,0-7.856-3.518-7.856-7.856v-44.344c0-4.339,3.517-7.856,7.856-7.856
						s7.856,3.518,7.856,7.856v44.344C-73.666,2654.3-77.184,2657.817-81.522,2657.817z"/>
				</g>
				<g>
					<line style="fill:#414B3B;" x1="-44.569" y1="2605.617" x2="-88.913" y2="2664.742"/>
					<path style="fill:#425736;" d="M-88.919,2672.599c-1.641,0-3.294-0.512-4.708-1.571c-3.471-2.604-4.174-7.528-1.571-10.999
						l44.344-59.125c2.604-3.471,7.527-4.174,10.999-1.571c3.471,2.604,4.174,7.528,1.571,10.999l-44.344,59.125
						C-84.171,2671.514-86.531,2672.599-88.919,2672.599z"/>
				</g>
				<g>
					<line style="fill:#414B3B;" x1="114.33" y1="1811.121" x2="114.33" y2="1988.497"/>
					<path style="fill:#425736;" d="M114.33,1993.734c-2.893,0-5.237-2.345-5.237-5.237v-177.376c0-2.893,2.345-5.237,5.237-5.237
						s5.237,2.345,5.237,5.237v177.376C119.567,1991.39,117.223,1993.734,114.33,1993.734z"/>
				</g>
			</g>
			<g>
				<g>
					<path style="fill:#414B3B;" d="M51.51,1585.706c0,0-66.516,184.766,66.516,258.673
						C118.025,1844.379,184.541,1667.003,51.51,1585.706z"/>
				</g>
				<g>
					<path style="fill:#414B3B;" d="M-0.225,1888.723c0,0-51.735,110.86,51.735,162.594
						C51.51,2051.318,95.853,1918.286-0.225,1888.723z"/>
				</g>
				<g>
					<path style="fill:#414B3B;" d="M177.151,1844.379c0,0,14.781-147.813,110.86-169.985
						C288.011,1674.394,295.401,1785.254,177.151,1844.379z"/>
				</g>
				<g>
					<path style="fill:#414B3B;" d="M177.151,2006.974c0,0-7.391-103.469,133.032-162.595c0,0-14.781,96.079-51.735,125.641
						S177.151,2006.974,177.151,2006.974z"/>
				</g>
				<g>
					<path style="fill:#414B3B;" d="M236.276,2176.959c0,0-7.391-110.86,118.251-192.157c0,0,51.735,103.469-118.251,206.938
						V2176.959z"/>
				</g>
				<g>
					<path style="fill:#414B3B;" d="M-44.569,1962.63c0,0-96.079,103.469-44.344,214.329
						C-88.913,2176.959,14.556,2043.927-44.569,1962.63z"/>
				</g>
				<g>
					<path style="fill:#414B3B;" d="M-170.21,1918.286c0,0-44.344,59.125-36.953,110.86c7.391,51.735,51.735,110.86,51.735,110.86
						S-96.304,1999.583-170.21,1918.286z"/>
				</g>
				<g>
					<path style="fill:#414B3B;" d="M-162.82,2258.256c0,0,7.391-96.079-133.032-110.86
						C-295.852,2147.396-295.852,2250.865-162.82,2258.256z"/>
				</g>
				<g>
					<path style="fill:#414B3B;" d="M-37.178,2339.553c0,0-14.781-162.594,81.297-206.938
						C44.119,2132.615,44.119,2332.163-37.178,2339.553z"/>
				</g>
				<g>
					<path style="fill:#414B3B;" d="M-125.866,2479.976c0,0-7.391-125.641-125.641-140.422
						C-251.508,2339.553-236.726,2479.976-125.866,2479.976z"/>
				</g>
				<g>
					<path style="fill:#414B3B;" d="M-148.038,2701.696c0,0,29.563-133.032-59.125-192.157
						C-207.164,2509.539-244.117,2679.524-148.038,2701.696z"/>
				</g>
				<g>
					<path style="fill:#414B3B;" d="M-103.694,2797.774c0,0,66.516-133.032,177.376-81.297
						C73.681,2716.477,7.166,2805.165-103.694,2797.774z"/>
				</g>
				<g>
					<path style="fill:#414B3B;" d="M-0.225,2627.789c0,0,79.409-86.026,169.349-70.229c5.11,0.898,10.253,2.124,15.418,3.713
						C280.62,2590.836-0.225,2627.789-0.225,2627.789z"/>
				</g>
				<g>
					<path style="fill:#414B3B;" d="M29.338,2539.101c0,0,51.735-96.079,147.813-110.86
						C177.151,2428.241,154.979,2531.71,29.338,2539.101z"/>
				</g>
				<g>
					<path style="fill:#414B3B;" d="M125.416,2354.335c0,0,118.251-110.86,199.548-66.516
						C324.964,2287.819,347.136,2354.335,125.416,2354.335z"/>
				</g>
				<g>
					<path style="fill:#414B3B;" d="M132.807,2258.256c0,0,125.641-169.985,73.907-206.938
						C206.713,2051.318,95.853,2058.708,132.807,2258.256z"/>
				</g>
				<g>
					<path style="fill:#414B3B;" d="M236.276,2228.694c0,0,118.251-96.079,169.985-73.907
						C406.261,2154.787,421.042,2221.303,236.276,2228.694z"/>
				</g>
			</g>
		</g>
	</g>
</g>
<g id="TROPICAL_PLANTS">
	<g>
		<g>
			<path style="fill:#627159;" d="M1223.835,1317.578v-245.189h-89.843v-17.261h198.275v17.261h-90.729v245.189H1223.835z"/>
			<path style="fill:#627159;" d="M1362.36,1317.578v-188.539h17.703v42.488c5.014-13.568,12.393-24.632,22.129-33.193
				c10.027-8.257,20.65-12.393,31.867-12.393h10.178v20.359c-0.885,0-1.922-0.291-3.098-0.885c-0.885-0.588-1.48-0.885-1.77-0.885
				c-13.873,0-26.41,5.906-37.619,17.703c-11.217,11.805-18.443,26.707-21.688,44.701v110.645H1362.36z"/>
			<path style="fill:#627159;" d="M1487.605,1294.121c-16.23-17.704-24.343-41.305-24.343-70.813
				c0-30.386,8.112-54.88,24.343-73.468c15.933-18.291,37.321-27.44,64.174-27.44c26.555,0,47.943,9.149,64.174,27.44
				c15.933,18.588,23.899,43.083,23.899,73.468c0,29.508-7.967,53.109-23.899,70.813c-16.23,17.703-37.619,26.555-64.174,26.555
				C1524.927,1320.676,1503.538,1311.824,1487.605,1294.121z M1603.118,1283.499c12.683-15.048,19.031-35.109,19.031-60.191
				c0-25.96-6.349-46.616-19.031-61.961c-12.986-15.636-30.096-23.457-51.339-23.457c-21.541,0-38.657,7.821-51.34,23.457
				c-12.986,15.345-19.473,36.001-19.473,61.961c0,25.082,6.486,45.143,19.473,60.191c12.683,15.048,29.799,22.572,51.34,22.572
				C1573.022,1306.071,1590.132,1298.547,1603.118,1283.499z"/>
			<path style="fill:#627159;" d="M1684.551,1388.391v-259.352h17.703v38.947c5.014-13.568,13.423-24.632,25.227-33.194
				c11.798-8.257,24.785-12.392,38.947-12.392c25.372,0,45.586,9.149,60.634,27.44c15.338,18.588,23.014,43.083,23.014,73.468
				c0,29.508-7.378,53.109-22.129,70.813c-14.46,17.703-33.934,26.555-58.42,26.555c-14.46,0-27.737-3.983-39.833-11.95
				c-12.102-7.669-21.243-18.146-27.439-31.423v111.088H1684.551z M1814.669,1284.384c11.798-15.933,17.703-36.879,17.703-62.847
				c0-25.96-5.905-46.616-17.703-61.961c-11.507-15.636-26.997-23.457-46.471-23.457c-18.298,0-33.788,8.409-46.471,25.227
				c-12.987,16.527-19.474,36.589-19.474,60.19c0,23.899,6.486,44.258,19.474,61.076c12.683,16.818,28.173,25.227,46.471,25.227
				C1787.672,1307.841,1803.162,1300.026,1814.669,1284.384z"/>
			<path style="fill:#627159;" d="M1895.215,1055.128h17.703v26.997h-17.703V1055.128z M1895.215,1317.578v-188.539h17.703v188.539
				H1895.215z"/>
			<path style="fill:#627159;" d="M1982.845,1295.891c-17.413-20.061-26.112-44.258-26.112-72.583
				c0-27.73,8.699-51.484,26.112-71.255c17.406-19.764,38.505-29.653,63.289-29.653c20.358,0,37.765,6.051,52.225,18.146
				c14.452,12.392,21.686,27.149,21.686,44.258h-17.703c0-12.392-5.463-23.014-16.375-31.866
				c-10.919-8.852-24.196-13.277-39.832-13.277c-19.771,0-36.734,8.119-50.896,24.342c-13.872,16.528-20.802,36.292-20.802,59.306
				c0,23.609,6.93,43.815,20.802,60.633c14.162,16.818,31.125,25.227,50.896,25.227c15.338,0,28.325-4.571,38.947-13.72
				c10.912-9.142,16.375-20.062,16.375-32.751h18.588c0,17.413-7.233,32.308-21.686,44.701
				c-14.46,12.392-31.866,18.588-52.225,18.588C2021.35,1325.987,2000.251,1315.959,1982.845,1295.891z"/>
			<path style="fill:#627159;" d="M2162.972,1308.726c-13.277-10.622-19.916-23.305-19.916-38.062
				c0-14.163,6.486-26.555,19.474-37.177c12.683-10.622,28.615-16.818,47.799-18.588c18.588-1.77,33.781-4.716,45.585-8.852
				c12.095-4.128,18.146-8.997,18.146-14.605v-16.818c0-9.737-5.312-17.994-15.934-24.785
				c-10.331-6.784-23.014-10.179-38.062-10.179c-14.163,0-26.409,3.25-36.734,9.737c-10.034,6.791-15.048,14.757-15.048,23.899
				v9.736h-16.817v-11.507c0-12.683,6.639-23.457,19.916-32.309c13.567-8.852,29.798-13.277,48.684-13.277
				c19.474,0,36.14,4.281,50.012,12.835c13.865,8.561,20.801,18.886,20.801,30.98v114.186c0,7.379,1.618,13.72,4.868,19.031
				c3.244,5.311,7.227,7.966,11.95,7.966c1.473,0,2.801-0.145,3.983-0.442c1.175-0.291,2.061-0.733,2.655-1.328v8.409
				c-4.426,2.061-10.034,3.098-16.818,3.098c-6.791,0-12.689-2.953-17.703-8.852c-4.723-5.899-7.081-12.98-7.081-21.244
				c-3.541,10.034-11.064,18.146-22.571,24.342c-11.508,6.196-24.785,9.294-39.832,9.294
				C2191.739,1324.216,2175.951,1319.051,2162.972,1308.726z M2251.93,1295.449c12.096-10.027,19.474-22.862,22.13-38.504v-43.373
				c-4.136,3.541-11.659,6.494-22.572,8.852c-10.331,2.365-24.051,4.281-41.159,5.754c-13.873,1.182-25.524,5.905-34.964,14.162
				c-9.446,7.967-14.163,17.413-14.163,28.325c0,11.217,4.868,20.656,14.605,28.325c9.439,7.966,20.946,11.95,34.521,11.95
				C2225.963,1310.939,2239.828,1305.78,2251.93,1295.449z"/>
			<path style="fill:#627159;" d="M2348.411,1317.578v-262.45h17.703v262.45H2348.411z"/>
		</g>
		<g>
			<path d="M1088.472,1618.093v-291.611h131.791c19.009,0,35.076,7.707,48.192,23.112c13.439,15.414,20.162,33.931,20.162,55.568
				c0,22.621-6.723,41.968-20.162,58.027c-13.116,16.066-29.183,24.096-48.192,24.096h-112.12v130.807H1088.472z M1216.82,1468.599
				c14.422,0,26.716-5.901,36.882-17.703c10.158-11.472,15.244-25.571,15.244-42.291c0-17.373-5.086-32.287-15.244-44.75
				c-10.166-12.125-22.459-18.195-36.882-18.195h-108.678v122.939H1216.82z"/>
			<path d="M1330.414,1326.482h19.67v272.924h156.87v18.687h-176.541V1326.482z"/>
			<path d="M1513.343,1618.093l115.563-291.611h24.588l114.087,291.611h-22.62l-37.374-93.434h-134.741l-37.373,93.434H1513.343z
				 M1700.21,1505.973l-59.994-156.87l-61.47,156.87H1700.21z"/>
			<path d="M1802.984,1618.093v-291.611h27.046l176.049,267.515v-267.515h19.67v291.611h-27.046l-176.049-263.581v263.581H1802.984z
				"/>
			<path d="M2159.009,1618.093V1345.66h-99.826v-19.178h220.307v19.178h-100.81v272.433H2159.009z"/>
			<path d="M2323.744,1596.947c-20.001-18.687-29.997-41.469-29.997-68.354h19.67c0,21.637,8.029,40.162,24.097,55.568
				c16.059,15.413,35.406,23.112,58.026,23.112c24.588,0,45.733-6.555,63.437-19.671c17.373-13.108,26.063-29.013,26.063-47.7
				c0-16.059-7.707-29.505-23.112-40.323c-15.083-10.819-35.407-17.373-60.979-19.67c-31.149-2.62-56.06-11.472-74.746-26.555
				c-18.687-15.076-28.03-33.601-28.03-55.568c0-21.637,9.505-40.155,28.521-55.568c19.01-15.406,41.961-23.113,68.846-23.113
				c28.845,0,53.602,8.037,74.255,24.096c20.324,16.066,30.489,35.406,30.489,58.027h-19.67c0-17.373-8.36-32.287-25.08-44.75
				c-16.396-12.455-36.39-18.687-59.994-18.687c-21.314,0-39.671,5.901-55.076,17.703c-15.083,11.479-22.621,25.571-22.621,42.291
				c0,16.397,7.868,30.166,23.604,41.307c16.059,11.149,37.204,17.873,63.437,20.162c30.158,2.628,54.416,11.311,72.779,26.063
				c18.026,14.752,27.047,32.948,27.047,54.584c0,23.604-10.657,43.767-31.964,60.486c-21.314,16.72-47.047,25.079-77.206,25.079
				C2367.341,1625.469,2343.414,1615.965,2323.744,1596.947z"/>
		</g>
	</g>
</g>
</svg>
